<?xml version="1.0" encoding="utf-8"?>
<!-- Generator: Adobe Illustrator 23.0.2, SVG Export Plug-In . SVG Version: 6.00 Build 0)  -->
<svg version="1.1" id="Capa_1" xmlns="http://www.w3.org/2000/svg" xmlns:xlink="http://www.w3.org/1999/xlink" x="0px" y="0px"
	 viewBox="0 0 566.93 566.93" style="enable-background:new 0 0 566.93 566.93;" xml:space="preserve">
<style type="text/css">
	.st0{fill:#FFFFFF;}
</style>
<g>
	<g>
		<path class="st0" d="M309.66,282.6c6.44,0,12.78,0,19.2,0c0-0.26,0-0.48,0-0.7c0-4.15,0-8.29,0-12.44c0-0.77,0.17-1.48,0.69-2.08
			c0.86-1,1.96-1.17,3.02-0.88c1.11,0.3,1.91,1.37,1.97,2.5c0.01,0.13,0,0.27,0,0.4c0,10.69,0,21.39,0.01,32.08
			c0,1.05-0.39,1.87-1.24,2.46c-1.71,1.19-4.12,0.13-4.41-1.93c-0.04-0.26-0.04-0.54-0.04-0.8c0-4.13,0-8.26,0-12.38
			c0-0.23,0-0.45,0-0.67c-0.47-0.13-18.51-0.16-19.2-0.03c0,0.21,0,0.43,0,0.66c0,4.26-0.03,8.52,0.01,12.79
			c0.01,1.63-1.55,3.21-3.47,2.79c-1.12-0.24-2.01-1.19-2.18-2.33c-0.04-0.26-0.04-0.54-0.04-0.8c0-10.56,0-21.12-0.01-31.68
			c0-0.77,0.15-1.48,0.62-2.1c0.73-0.96,1.93-1.26,3.04-0.95c1.14,0.32,1.94,1.33,2.01,2.47c0.01,0.17,0,0.35,0,0.52
			c0,4.13,0,8.26,0,12.38C309.66,282.09,309.66,282.32,309.66,282.6z"/>
	</g>
	<g>
		<path class="st0" d="M279.83,233.12c1.51-0.04,2.94-0.08,4.41-0.12c0,7.12,0,14.16,0,21.25c-0.96,0-1.91,0-2.94,0
			c-0.07-0.67-0.15-1.32-0.2-1.98c-0.14-2.1-0.26-4.2-0.39-6.3c-0.07-1.11-0.15-2.21-0.23-3.32c-0.12-1.72-0.22-3.43-0.35-5.15
			c-0.09-1.18-0.2-2.36-0.3-3.54C279.81,233.73,279.83,233.48,279.83,233.12z"/>
	</g>
	<g>
		<path class="st0" d="M259.4,300.2c0.63,0.82,1.2,1.58,1.82,2.38c-5.5,4.49-10.97,8.95-16.49,13.45c-0.92-1.21-1.79-2.37-2.72-3.6
			C247.81,308.34,253.58,304.3,259.4,300.2z"/>
	</g>
	<g>
		<path class="st0" d="M306.61,238.39c1.33,0.75,2.61,1.47,3.94,2.22c-3.71,6.07-7.39,12.08-11.09,18.13
			c-0.24-0.12-0.44-0.22-0.64-0.33c-0.65-0.37-1.29-0.74-1.97-1.12C300.1,251,303.33,244.74,306.61,238.39z"/>
	</g>
	<g>
		<path class="st0" d="M254.9,325.35c-1.21-0.92-2.38-1.81-3.6-2.73c4.51-5.51,8.98-10.97,13.48-16.46c0.8,0.6,1.57,1.19,2.39,1.81
			C263.08,313.77,259.01,319.53,254.9,325.35z"/>
	</g>
	<g>
		<path class="st0" d="M247.07,248.65c5.21,4.88,10.34,9.7,15.52,14.55c-0.35,0.41-0.67,0.79-0.99,1.16
			c-0.31,0.36-0.63,0.71-0.98,1.11c-5.51-4.47-10.98-8.92-16.51-13.41C245.08,250.93,246.05,249.82,247.07,248.65z"/>
	</g>
	<g>
		<path class="st0" d="M305.7,263.8c-0.76-0.67-1.47-1.29-2.22-1.94c0.3-0.36,0.51-0.64,0.75-0.9c1.16-1.25,2.34-2.49,3.5-3.74
			c1.41-1.52,2.81-3.04,4.22-4.56c1.19-1.28,2.39-2.54,3.58-3.82c0.58-0.62,1.14-1.24,1.71-1.86c0.22-0.24,0.47-0.45,0.66-0.63
			c1,1,1.99,1.98,3.04,3.03c-0.06,0.09-0.15,0.3-0.31,0.45c-1.38,1.33-2.77,2.64-4.17,3.96c-1.1,1.04-2.22,2.06-3.33,3.09
			c-1.36,1.27-2.72,2.53-4.08,3.8c-0.91,0.85-1.82,1.7-2.73,2.55C306.11,263.45,305.87,263.65,305.7,263.8z"/>
	</g>
	<g>
		<path class="st0" d="M237.13,263.96c0.48-1.48,1.22-2.75,1.88-4.11c6.29,3.29,12.54,6.54,18.84,9.83
			c-0.42,0.88-0.83,1.74-1.23,2.57c-0.04,0.02-0.06,0.04-0.07,0.04c-0.02,0.01-0.04,0.01-0.06,0.01c-0.07-0.02-0.15-0.03-0.22-0.06
			C249.91,269.5,243.55,266.74,237.13,263.96z"/>
	</g>
	<g>
		<path class="st0" d="M315.28,323.37c-4.49-5.55-8.92-11.02-13.38-16.54c0.71-0.62,1.39-1.21,2.06-1.8
			c0.9,0.39,1.41,1.15,2.04,1.79c0.68,0.69,1.33,1.43,1.99,2.14c1.3,1.4,2.61,2.8,3.92,4.2c0.94,1.01,1.89,2.01,2.83,3.01
			c1.19,1.27,2.39,2.54,3.58,3.81c0.12,0.12,0.2,0.27,0.34,0.45C317.54,321.4,316.45,322.35,315.28,323.37z"/>
	</g>
	<g>
		<path class="st0" d="M268.89,258.25c-0.85,0.55-1.66,1.09-2.5,1.64c-4.07-5.74-8.13-11.46-12.22-17.23
			c1.13-1.03,2.39-1.8,3.75-2.51C261.58,246.19,265.23,252.2,268.89,258.25z"/>
	</g>
	<g>
		<path class="st0" d="M303.41,330.41c-2.82-6.54-5.61-13-8.42-19.53c0.89-0.42,1.74-0.83,2.66-1.27c0.25,0.46,0.51,0.89,0.75,1.35
			c1.25,2.41,2.49,4.84,3.75,7.25c1.57,3.02,3.16,6.04,4.73,9.07c0.2,0.39,0.37,0.79,0.57,1.23
			C306.1,329.14,304.79,329.76,303.41,330.41z"/>
	</g>
	<g>
		<path class="st0" d="M267.26,331.47c-1.51-0.35-2.83-0.94-4.22-1.6c2.84-6.47,5.66-12.91,8.51-19.42
			c0.93,0.37,1.82,0.73,2.77,1.11C271.96,318.21,269.63,324.8,267.26,331.47z"/>
	</g>
	<g>
		<path class="st0" d="M270.6,234.75c1.89,6.83,3.77,13.59,5.67,20.43c-0.94,0.3-1.86,0.6-2.83,0.91
			c-2.37-6.64-4.73-13.24-7.11-19.9C267.67,235.49,269.09,235.15,270.6,234.75z"/>
	</g>
	<g>
		<path class="st0" d="M235.78,300.11c6.69-2.36,13.35-4.71,20.05-7.07c0.36,0.91,0.72,1.81,1.1,2.77
			c-6.51,2.84-12.97,5.66-19.5,8.5C236.88,302.9,236.34,301.54,235.78,300.11z"/>
	</g>
	<g>
		<path class="st0" d="M292.17,255.43c-0.97-0.23-1.89-0.45-2.89-0.68c1.41-6.9,2.82-13.76,4.23-20.69
			c1.53,0.04,2.92,0.61,4.41,0.93C296,241.82,294.09,248.6,292.17,255.43z"/>
	</g>
	<g>
		<path class="st0" d="M255.04,277.18c-0.18,1.01-0.34,1.93-0.52,2.92c-7.01-0.95-13.99-1.89-21.05-2.84
			c0.25-1.5,0.49-2.9,0.75-4.39c1.78,0.29,3.49,0.69,5.2,1.04c1.74,0.36,3.49,0.72,5.23,1.08c1.73,0.36,3.45,0.74,5.17,1.1
			C251.54,276.45,253.27,276.81,255.04,277.18z"/>
	</g>
	<g>
		<path class="st0" d="M276.3,333.8c0.98-7.03,1.95-14.02,2.93-21.04c0.98,0.1,1.91,0.2,2.82,0.29c0.14,0.61-1.13,20.21-1.38,21.17
			C279.24,334.15,277.81,333.96,276.3,333.8z"/>
	</g>
	<g>
		<path class="st0" d="M294.49,333.18c-0.64,0.12-1.2,0.23-1.76,0.33c-0.64,0.11-1.28,0.23-1.93,0.31
			c-0.57,0.07-0.77-0.09-0.84-0.66c-0.32-2.37-0.63-4.74-0.95-7.1c-0.41-3.07-0.82-6.13-1.23-9.2c-0.15-1.16-0.31-2.31-0.46-3.47
			c-0.02-0.15,0-0.3,0-0.49c0.92-0.16,1.84-0.32,2.84-0.49c0.43,1.72,0.74,3.46,1.11,5.19c0.37,1.72,0.72,3.44,1.08,5.17
			c0.36,1.74,0.71,3.49,1.07,5.23C293.77,329.7,294.13,331.41,294.49,333.18z"/>
	</g>
	<g>
		<path class="st0" d="M254.36,285.31c0.09,0.93,0.18,1.84,0.28,2.83c-7.01,0.98-13.97,1.93-20.96,2.88
			c-0.31-1.46-0.38-2.89-0.49-4.32c0.62-0.27,1.26-0.21,1.88-0.26c1.41-0.11,2.82-0.2,4.23-0.29c1.62-0.1,3.25-0.19,4.87-0.29
			c1.32-0.09,2.63-0.2,3.95-0.29c1.01-0.07,2.02-0.12,3.04-0.17c0.86-0.04,1.72-0.08,2.58-0.11
			C253.92,285.28,254.11,285.3,254.36,285.31z"/>
	</g>
	<g>
		<path class="st0" d="M326.79,256.84c0.74,1.31,1.46,2.59,2.22,3.93c-5.9,3.05-11.76,6.08-17.72,9.16
			c0.01-1.14-0.12-2.19-0.74-3.15C315.97,263.47,321.35,260.17,326.79,256.84z"/>
	</g>
	<g>
		<path class="st0" d="M310.85,303.46c0.54-1.15,0.4-2.31,0.44-3.46c0.45,0.11,14.79,8.78,15.95,9.63
			c-0.71,1.29-1.54,2.51-2.46,3.74C320.12,310.06,315.5,306.77,310.85,303.46z"/>
	</g>
	<g>
		<path class="st0" d="M311.31,294.02c0.31-0.96,0.6-1.88,0.91-2.83c5.05,1.41,10.04,2.8,15.04,4.2c0,1.44,0,2.86,0,4.36
			C321.94,297.84,316.66,295.94,311.31,294.02z"/>
	</g>
	<g>
		<path class="st0" d="M312.67,278.12c-0.24-1-0.47-1.9-0.71-2.88c5.09-1.44,10.18-2.87,15.3-4.32c0,1.42,0,2.78,0,4.2
			C322.42,276.12,317.58,277.11,312.67,278.12z"/>
	</g>
</g>
</svg>
