<?xml version="1.0" encoding="utf-8"?>
<!-- Generator: Adobe Illustrator 23.0.2, SVG Export Plug-In . SVG Version: 6.00 Build 0)  -->
<svg version="1.1" id="Capa_1" xmlns="http://www.w3.org/2000/svg" xmlns:xlink="http://www.w3.org/1999/xlink" x="0px" y="0px"
	 viewBox="0 0 566.93 566.93" style="enable-background:new 0 0 566.93 566.93;" xml:space="preserve">
<style type="text/css">
	.st0{fill:#606060;}
</style>
<g>
	<g>
		<path class="st0" d="M237.5,240.59v-0.07c0-5.27,4.12-9.75,9.75-9.75c5.6,0,9.72,4.41,9.72,9.68v0.07c0,5.27-4.15,9.75-9.79,9.75
			C241.58,250.27,237.5,245.86,237.5,240.59z M254.11,240.59v-0.07c0-4.01-3-7.3-6.93-7.3c-4.05,0-6.83,3.29-6.83,7.22v0.07
			c0,4.01,2.96,7.26,6.9,7.26C251.29,247.77,254.11,244.52,254.11,240.59z"/>
		<path class="st0" d="M261.99,232.39c0-0.76,0.61-1.41,1.37-1.41c0.79,0,1.41,0.61,1.41,1.41v3.5c1.37-3.11,4.08-4.98,6.43-4.98
			c0.83,0,1.37,0.61,1.37,1.41c0,0.76-0.51,1.3-1.23,1.41c-3.61,0.43-6.57,3.14-6.57,8.52v6.36c0,0.76-0.58,1.41-1.37,1.41
			s-1.41-0.61-1.41-1.41V232.39z"/>
		<path class="st0" d="M276.61,225.31c0-0.9,0.72-1.48,1.63-1.48c0.94,0,1.66,0.58,1.66,1.48v0.47c0,0.87-0.72,1.48-1.66,1.48
			c-0.9,0-1.63-0.61-1.63-1.48V225.31z M276.87,232.39c0-0.76,0.61-1.41,1.37-1.41c0.79,0,1.41,0.61,1.41,1.41v16.22
			c0,0.79-0.58,1.41-1.37,1.41s-1.41-0.61-1.41-1.41V232.39z"/>
		<path class="st0" d="M285.03,248.71v-0.07c0-0.47,0.18-0.83,0.58-1.26l11.81-13.87h-10.91c-0.65,0-1.19-0.51-1.19-1.16
			c0-0.65,0.54-1.19,1.19-1.19h13.33c0.76,0,1.34,0.51,1.34,1.12v0.07c0,0.47-0.18,0.83-0.58,1.26l-11.81,13.87h11.38
			c0.65,0,1.19,0.54,1.19,1.16c0,0.65-0.54,1.19-1.19,1.19h-13.8C285.64,249.83,285.03,249.33,285.03,248.71z"/>
		<path class="st0" d="M304.5,240.59v-0.07c0-5.27,4.12-9.75,9.75-9.75c5.6,0,9.71,4.41,9.71,9.68v0.07c0,5.27-4.15,9.75-9.79,9.75
			C308.58,250.27,304.5,245.86,304.5,240.59z M321.11,240.59v-0.07c0-4.01-3-7.3-6.93-7.3c-4.05,0-6.83,3.29-6.83,7.22v0.07
			c0,4.01,2.96,7.26,6.9,7.26C318.3,247.77,321.11,244.52,321.11,240.59z"/>
		<path class="st0" d="M328.99,232.39c0-0.76,0.61-1.41,1.37-1.41c0.79,0,1.41,0.61,1.41,1.41v2.02c1.23-2.02,3.18-3.65,6.39-3.65
			c4.51,0,7.15,3.03,7.15,7.48v10.37c0,0.79-0.61,1.41-1.37,1.41c-0.79,0-1.41-0.61-1.41-1.41v-9.68c0-3.47-1.88-5.63-5.17-5.63
			c-3.21,0-5.6,2.35-5.6,5.85v9.46c0,0.79-0.58,1.41-1.37,1.41c-0.79,0-1.41-0.61-1.41-1.41V232.39z"/>
		<path class="st0" d="M352.21,244.88v-11.27h-1.52c-0.65,0-1.23-0.58-1.23-1.23c0-0.69,0.58-1.23,1.23-1.23h1.52v-4.41
			c0-0.76,0.58-1.41,1.37-1.41c0.76,0,1.41,0.65,1.41,1.41v4.41h4.84c0.69,0,1.26,0.58,1.26,1.23c0,0.69-0.58,1.23-1.26,1.23H355
			v10.91c0,2.28,1.26,3.11,3.14,3.11c0.98,0,1.48-0.25,1.7-0.25c0.65,0,1.19,0.54,1.19,1.19c0,0.5-0.33,0.9-0.79,1.08
			c-0.79,0.33-1.66,0.51-2.75,0.51C354.49,250.16,352.21,248.68,352.21,244.88z"/>
		<path class="st0" d="M373.45,250.27c-5.13,0-9.32-3.94-9.32-9.72v-0.07c0-5.38,3.79-9.72,8.96-9.72c5.53,0,8.67,4.51,8.67,9.46
			c0,0.76-0.61,1.3-1.3,1.3h-13.51c0.4,4.04,3.25,6.32,6.57,6.32c2.31,0,4.01-0.9,5.38-2.17c0.22-0.18,0.47-0.33,0.79-0.33
			c0.69,0,1.23,0.54,1.23,1.19c0,0.33-0.14,0.65-0.43,0.9C378.73,249.15,376.63,250.27,373.45,250.27z M378.98,239.47
			c-0.29-3.39-2.24-6.36-5.96-6.36c-3.25,0-5.71,2.71-6.07,6.36H378.98z"/>
	</g>
</g>
<g>
	<path class="st0" d="M297.89,253.97h0.12c0.05,0,0.07,0.03,0.07,0.07v4.97c0,0.05-0.03,0.07-0.07,0.07h-0.11
		c-0.04,0-0.07-0.01-0.09-0.05l-2.7-4.54v4.52c0,0.05-0.03,0.07-0.07,0.07h-0.12c-0.05,0-0.07-0.03-0.07-0.07v-4.97
		c0-0.05,0.03-0.07,0.07-0.07h0.11c0.04,0,0.07,0.01,0.09,0.05l2.7,4.54v-4.52C297.82,253.99,297.84,253.97,297.89,253.97z"/>
	<path class="st0" d="M302.22,258.91v0.1c0,0.05-0.03,0.07-0.07,0.07h-2.58h-0.05c-0.05,0-0.07-0.03-0.07-0.07v-4.97
		c0-0.05,0.03-0.07,0.07-0.07h0.2h2.4c0.05,0,0.07,0.03,0.07,0.07v0.1c0,0.05-0.03,0.07-0.07,0.07h-2.4v2.16h2.22
		c0.05,0,0.07,0.03,0.07,0.07v0.1c0,0.05-0.03,0.07-0.07,0.07h-2.22v2.21h2.44C302.2,258.84,302.22,258.86,302.22,258.91z"/>
	<path class="st0" d="M307.9,256.7v0.17v2.14c0,0.05-0.03,0.07-0.07,0.07h-0.12c-0.05,0-0.07-0.03-0.07-0.07v-0.95
		c-0.36,0.74-1.19,1.1-2.03,1.1c-1.6,0-2.69-1.18-2.69-2.64c0-1.46,1.11-2.64,2.64-2.64c1.05,0,1.96,0.61,2.31,1.5
		c0.02,0.05-0.01,0.08-0.06,0.08h-0.14c-0.04,0-0.07-0.02-0.09-0.06c-0.32-0.76-1.12-1.28-2.03-1.28c-1.38,0-2.37,1.06-2.37,2.38
		c0,1.32,0.96,2.38,2.42,2.38c1,0,1.94-0.54,2.03-1.6v-0.44h-1.92c-0.05,0-0.07-0.03-0.07-0.07v-0.1c0-0.05,0.03-0.07,0.07-0.07
		h2.12C307.87,256.62,307.9,256.65,307.9,256.7z"/>
	<path class="st0" d="M308.83,256.53c0-1.46,1.17-2.64,2.64-2.64s2.64,1.18,2.64,2.64c0,1.46-1.17,2.64-2.64,2.64
		S308.83,257.98,308.83,256.53z M313.83,256.53c0-1.32-1.05-2.38-2.37-2.38s-2.37,1.06-2.37,2.38c0,1.32,1.05,2.38,2.37,2.38
		S313.83,257.84,313.83,256.53z"/>
	<path class="st0" d="M314.88,256.53c0-1.46,1.11-2.64,2.65-2.64c1.05,0,1.96,0.61,2.31,1.5c0.02,0.05-0.01,0.08-0.06,0.08h-0.14
		c-0.04,0-0.07-0.02-0.09-0.06c-0.33-0.76-1.12-1.28-2.03-1.28c-1.4,0-2.38,1.06-2.38,2.38c0,1.32,0.98,2.38,2.38,2.38
		c0.92,0,1.71-0.52,2.03-1.28c0.02-0.04,0.05-0.06,0.09-0.06h0.14c0.05,0,0.08,0.03,0.06,0.08c-0.36,0.89-1.26,1.51-2.32,1.51
		C315.98,259.16,314.88,257.98,314.88,256.53z"/>
	<path class="st0" d="M320.89,253.97h0.12c0.05,0,0.07,0.03,0.07,0.07v4.97c0,0.05-0.03,0.07-0.07,0.07h-0.12
		c-0.05,0-0.07-0.03-0.07-0.07v-4.97C320.82,254,320.84,253.97,320.89,253.97z"/>
	<path class="st0" d="M322.15,256.53c0-1.46,1.17-2.64,2.64-2.64s2.64,1.18,2.64,2.64c0,1.46-1.17,2.64-2.64,2.64
		S322.15,257.98,322.15,256.53z M327.16,256.53c0-1.32-1.05-2.38-2.37-2.38s-2.37,1.06-2.37,2.38c0,1.32,1.05,2.38,2.37,2.38
		S327.16,257.84,327.16,256.53z"/>
	<path class="st0" d="M328.12,257.81c0-0.05,0.02-0.08,0.07-0.08h0.13c0.04,0,0.07,0.03,0.07,0.07c0.04,0.67,0.58,1.1,1.49,1.1
		c0.79,0,1.31-0.45,1.31-1.06c0-0.73-0.65-0.96-1.34-1.22c-0.77-0.29-1.6-0.53-1.6-1.47c0-0.75,0.66-1.27,1.51-1.27
		c0.8,0,1.49,0.51,1.53,1.26c0,0.05-0.02,0.08-0.07,0.08h-0.12c-0.04,0-0.07-0.03-0.07-0.07c-0.04-0.58-0.55-1.02-1.26-1.02
		c-0.77,0-1.25,0.46-1.25,1.02c0,0.74,0.67,0.95,1.37,1.22c0.76,0.29,1.56,0.56,1.56,1.47c0,0.8-0.7,1.31-1.58,1.31
		C328.89,259.16,328.16,258.67,328.12,257.81z"/>
	<path class="st0" d="M337.31,258.91v0.1c0,0.05-0.03,0.07-0.07,0.07h-2.58h-0.05c-0.05,0-0.07-0.03-0.07-0.07v-4.97
		c0-0.05,0.03-0.07,0.07-0.07h0.19h2.4c0.05,0,0.07,0.03,0.07,0.07v0.1c0,0.05-0.03,0.07-0.07,0.07h-2.4v2.16h2.22
		c0.05,0,0.07,0.03,0.07,0.07v0.1c0,0.05-0.03,0.07-0.07,0.07h-2.22v2.21h2.44C337.29,258.84,337.31,258.86,337.31,258.91z"/>
	<path class="st0" d="M340.47,253.97h0.12c0.05,0,0.07,0.03,0.07,0.07v4.97c0,0.05-0.03,0.07-0.07,0.07h-0.12
		c-0.05,0-0.07-0.03-0.07-0.07v-4.97C340.4,254,340.43,253.97,340.47,253.97z"/>
	<path class="st0" d="M345.07,253.97h0.12c0.05,0,0.07,0.03,0.07,0.07v4.97c0,0.05-0.03,0.07-0.07,0.07h-0.11
		c-0.04,0-0.07-0.01-0.09-0.05l-2.7-4.54v4.52c0,0.05-0.03,0.07-0.07,0.07h-0.12c-0.05,0-0.07-0.03-0.07-0.07v-4.97
		c0-0.05,0.03-0.07,0.07-0.07h0.11c0.04,0,0.07,0.01,0.09,0.05l2.7,4.54v-4.52C345,253.99,345.03,253.97,345.07,253.97z"/>
	<path class="st0" d="M347.97,259.03l-1.88-4.97c-0.02-0.05,0.01-0.08,0.06-0.08h0.13c0.04,0,0.07,0.02,0.08,0.06l1.77,4.74
		l1.77-4.74c0.01-0.04,0.04-0.06,0.08-0.06h0.13c0.05,0,0.08,0.03,0.06,0.08l-1.88,4.97c-0.01,0.04-0.04,0.06-0.08,0.06h-0.17
		C348.02,259.08,347.99,259.06,347.97,259.03z"/>
	<path class="st0" d="M353.79,258.91v0.1c0,0.05-0.03,0.07-0.07,0.07h-2.58h-0.05c-0.05,0-0.07-0.03-0.07-0.07v-4.97
		c0-0.05,0.03-0.07,0.07-0.07h0.2h2.4c0.05,0,0.07,0.03,0.07,0.07v0.1c0,0.05-0.03,0.07-0.07,0.07h-2.4v2.16h2.22
		c0.05,0,0.07,0.03,0.07,0.07v0.1c0,0.05-0.03,0.07-0.07,0.07h-2.22v2.21h2.44C353.77,258.84,353.79,258.86,353.79,258.91z"/>
	<path class="st0" d="M358.54,259.08h-0.16c-0.04,0-0.07-0.01-0.09-0.04l-1.85-2.1h-1.36v2.07c0,0.05-0.03,0.07-0.07,0.07h-0.12
		c-0.05,0-0.07-0.03-0.07-0.07v-4.97c0-0.05,0.03-0.07,0.07-0.07h0.2h1.41c0.82,0,1.49,0.67,1.49,1.49c0,0.73-0.53,1.34-1.23,1.46
		l1.83,2.08C358.62,259.04,358.6,259.08,358.54,259.08z M355.08,256.69h1.41c0.67,0,1.22-0.56,1.22-1.24c0-0.68-0.55-1.24-1.22-1.24
		h-1.41V256.69z"/>
	<path class="st0" d="M358.91,257.81c0-0.05,0.02-0.08,0.07-0.08h0.13c0.04,0,0.07,0.03,0.07,0.07c0.04,0.67,0.58,1.1,1.49,1.1
		c0.79,0,1.31-0.45,1.31-1.06c0-0.73-0.65-0.96-1.34-1.22c-0.77-0.29-1.6-0.53-1.6-1.47c0-0.75,0.66-1.27,1.51-1.27
		c0.8,0,1.49,0.51,1.53,1.26c0,0.05-0.02,0.08-0.07,0.08h-0.12c-0.04,0-0.07-0.03-0.07-0.07c-0.04-0.58-0.55-1.02-1.26-1.02
		c-0.77,0-1.25,0.46-1.25,1.02c0,0.74,0.67,0.95,1.37,1.22c0.76,0.29,1.56,0.56,1.56,1.47c0,0.8-0.7,1.31-1.58,1.31
		C359.68,259.16,358.95,258.67,358.91,257.81z"/>
	<path class="st0" d="M363.34,253.97h0.12c0.05,0,0.07,0.03,0.07,0.07v4.97c0,0.05-0.03,0.07-0.07,0.07h-0.12
		c-0.05,0-0.07-0.03-0.07-0.07v-4.97C363.27,254,363.29,253.97,363.34,253.97z"/>
	<path class="st0" d="M364.6,256.53c0-1.46,1.17-2.64,2.64-2.64s2.64,1.18,2.64,2.64c0,1.46-1.17,2.64-2.64,2.64
		S364.6,257.98,364.6,256.53z M369.61,256.53c0-1.32-1.05-2.38-2.37-2.38s-2.37,1.06-2.37,2.38c0,1.32,1.05,2.38,2.37,2.38
		S369.61,257.84,369.61,256.53z"/>
	<path class="st0" d="M373.99,253.97h0.12c0.05,0,0.07,0.03,0.07,0.07v4.97c0,0.05-0.03,0.07-0.07,0.07H374
		c-0.04,0-0.07-0.01-0.09-0.05l-2.7-4.54v4.52c0,0.05-0.03,0.07-0.07,0.07h-0.12c-0.05,0-0.07-0.03-0.07-0.07v-4.97
		c0-0.05,0.03-0.07,0.07-0.07h0.11c0.04,0,0.07,0.01,0.09,0.05l2.7,4.54v-4.52C373.91,253.99,373.94,253.97,373.99,253.97z"/>
	<path class="st0" d="M378.32,258.91v0.1c0,0.05-0.03,0.07-0.07,0.07h-2.58h-0.05c-0.05,0-0.07-0.03-0.07-0.07v-4.97
		c0-0.05,0.03-0.07,0.07-0.07h0.19h2.4c0.05,0,0.07,0.03,0.07,0.07v0.1c0,0.05-0.03,0.07-0.07,0.07h-2.4v2.16h2.22
		c0.05,0,0.07,0.03,0.07,0.07v0.1c0,0.05-0.03,0.07-0.07,0.07h-2.22v2.21h2.44C378.29,258.84,378.32,258.86,378.32,258.91z"/>
	<path class="st0" d="M379,257.81c0-0.05,0.02-0.08,0.07-0.08h0.13c0.04,0,0.07,0.03,0.07,0.07c0.04,0.67,0.58,1.1,1.49,1.1
		c0.79,0,1.31-0.45,1.31-1.06c0-0.73-0.65-0.96-1.34-1.22c-0.77-0.29-1.6-0.53-1.6-1.47c0-0.75,0.66-1.27,1.51-1.27
		c0.8,0,1.49,0.51,1.53,1.26c0,0.05-0.02,0.08-0.07,0.08h-0.12c-0.04,0-0.07-0.03-0.07-0.07c-0.04-0.58-0.55-1.02-1.26-1.02
		c-0.77,0-1.25,0.46-1.25,1.02c0,0.74,0.67,0.95,1.37,1.22c0.76,0.29,1.56,0.56,1.56,1.47c0,0.8-0.7,1.31-1.58,1.31
		C379.77,259.16,379.04,258.67,379,257.81z"/>
</g>
<g>
	<path class="st0" d="M216.88,234.82c4.52,0,8.97,0,13.48,0c0-0.18,0-0.34,0-0.49c0-2.91,0-5.82,0-8.73c0-0.54,0.12-1.04,0.48-1.46
		c0.61-0.7,1.37-0.82,2.12-0.62c0.78,0.21,1.34,0.96,1.38,1.76c0.01,0.09,0,0.19,0,0.28c0,7.51,0,15.02,0,22.52
		c0,0.73-0.27,1.31-0.87,1.72c-1.2,0.83-2.89,0.09-3.09-1.35c-0.03-0.19-0.03-0.38-0.03-0.56c0-2.9,0-5.8,0-8.69
		c0-0.16,0-0.32,0-0.47c-0.33-0.09-13-0.11-13.48-0.02c0,0.15,0,0.31,0,0.46c0,2.99-0.02,5.98,0.01,8.98
		c0.01,1.14-1.09,2.25-2.44,1.96c-0.79-0.17-1.41-0.83-1.53-1.64c-0.03-0.19-0.03-0.38-0.03-0.56c0-7.41,0-14.83,0-22.24
		c0-0.54,0.1-1.04,0.44-1.48c0.51-0.68,1.36-0.89,2.14-0.67c0.8,0.22,1.36,0.93,1.41,1.73c0.01,0.12,0,0.24,0,0.36
		c0,2.9,0,5.8,0,8.69C216.88,234.46,216.88,234.62,216.88,234.82z"/>
</g>
<g>
	<path class="st0" d="M195.93,200.09c1.06-0.03,2.06-0.06,3.1-0.09c0,5,0,9.94,0,14.92c-0.67,0-1.34,0-2.07,0
		c-0.05-0.47-0.11-0.93-0.14-1.39c-0.1-1.47-0.18-2.95-0.28-4.42c-0.05-0.78-0.11-1.55-0.16-2.33c-0.08-1.2-0.16-2.41-0.25-3.61
		c-0.06-0.83-0.14-1.66-0.21-2.48C195.92,200.51,195.93,200.34,195.93,200.09z"/>
</g>
<g>
	<path class="st0" d="M181.59,247.18c0.44,0.58,0.84,1.11,1.27,1.67c-3.86,3.15-7.7,6.28-11.58,9.45c-0.64-0.85-1.26-1.66-1.91-2.53
		C173.45,252.89,177.5,250.06,181.59,247.18z"/>
</g>
<g>
	<path class="st0" d="M214.74,203.79c0.94,0.53,1.83,1.03,2.77,1.56c-2.6,4.26-5.19,8.48-7.79,12.73c-0.17-0.09-0.31-0.15-0.45-0.23
		c-0.45-0.26-0.91-0.52-1.39-0.79C210.16,212.63,212.44,208.24,214.74,203.79z"/>
</g>
<g>
	<path class="st0" d="M178.43,264.84c-0.85-0.65-1.67-1.27-2.53-1.92c3.17-3.87,6.31-7.7,9.46-11.56c0.56,0.42,1.1,0.84,1.68,1.27
		C184.17,256.7,181.32,260.75,178.43,264.84z"/>
</g>
<g>
	<path class="st0" d="M172.93,210.99c3.65,3.43,7.26,6.81,10.89,10.22c-0.25,0.29-0.47,0.55-0.7,0.81c-0.22,0.25-0.44,0.5-0.69,0.78
		c-3.87-3.14-7.71-6.26-11.59-9.42C171.54,212.59,172.21,211.81,172.93,210.99z"/>
</g>
<g>
	<path class="st0" d="M214.1,221.63c-0.54-0.47-1.03-0.9-1.56-1.36c0.21-0.25,0.36-0.45,0.53-0.63c0.82-0.88,1.64-1.75,2.46-2.62
		c0.99-1.06,1.97-2.13,2.96-3.2c0.83-0.9,1.68-1.78,2.51-2.68c0.4-0.43,0.8-0.87,1.2-1.3c0.16-0.17,0.33-0.31,0.46-0.44
		c0.7,0.7,1.39,1.39,2.13,2.13c-0.04,0.06-0.11,0.21-0.22,0.32c-0.97,0.93-1.95,1.86-2.93,2.78c-0.77,0.73-1.56,1.45-2.34,2.17
		c-0.96,0.89-1.91,1.78-2.86,2.67c-0.64,0.6-1.28,1.19-1.92,1.79C214.38,221.38,214.22,221.52,214.1,221.63z"/>
</g>
<g>
	<path class="st0" d="M165.96,221.73c0.34-1.04,0.86-1.93,1.32-2.89c4.42,2.31,8.8,4.59,13.22,6.9c-0.3,0.62-0.59,1.22-0.87,1.81
		c-0.03,0.02-0.04,0.03-0.05,0.03c-0.01,0-0.03,0.01-0.04,0.01c-0.05-0.01-0.11-0.02-0.15-0.04
		C174.93,225.62,170.46,223.69,165.96,221.73z"/>
</g>
<g>
	<path class="st0" d="M220.82,263.44c-3.15-3.9-6.26-7.74-9.39-11.61c0.5-0.43,0.98-0.85,1.44-1.26c0.63,0.27,0.99,0.81,1.43,1.25
		c0.48,0.49,0.93,1,1.4,1.51c0.92,0.98,1.83,1.97,2.75,2.95c0.66,0.71,1.33,1.41,1.99,2.11c0.84,0.89,1.68,1.78,2.51,2.68
		c0.08,0.09,0.14,0.19,0.24,0.32C222.41,262.06,221.64,262.73,220.82,263.44z"/>
</g>
<g>
	<path class="st0" d="M188.26,217.73c-0.59,0.39-1.16,0.76-1.76,1.15c-2.86-4.03-5.71-8.05-8.58-12.1c0.79-0.72,1.67-1.26,2.63-1.76
		C183.12,209.26,185.68,213.48,188.26,217.73z"/>
</g>
<g>
	<path class="st0" d="M212.49,268.39c-1.98-4.59-3.94-9.13-5.91-13.71c0.62-0.3,1.22-0.58,1.87-0.89c0.18,0.32,0.36,0.63,0.53,0.94
		c0.88,1.7,1.75,3.4,2.63,5.09c1.1,2.12,2.22,4.24,3.32,6.37c0.14,0.27,0.26,0.56,0.4,0.86
		C214.37,267.49,213.45,267.93,212.49,268.39z"/>
</g>
<g>
	<path class="st0" d="M187.11,269.13c-1.06-0.25-1.99-0.66-2.96-1.12c1.99-4.54,3.97-9.07,5.98-13.63c0.65,0.26,1.28,0.51,1.94,0.78
		C190.41,259.82,188.77,264.45,187.11,269.13z"/>
</g>
<g>
	<path class="st0" d="M189.46,201.23c1.33,4.79,2.65,9.54,3.98,14.34c-0.66,0.21-1.31,0.42-1.99,0.64
		c-1.66-4.66-3.32-9.29-4.99-13.97C187.4,201.75,188.4,201.51,189.46,201.23z"/>
</g>
<g>
	<path class="st0" d="M165.01,247.12c4.7-1.66,9.37-3.3,14.08-4.96c0.25,0.64,0.51,1.27,0.77,1.94c-4.57,1.99-9.11,3.97-13.69,5.97
		C165.78,249.07,165.4,248.12,165.01,247.12z"/>
</g>
<g>
	<path class="st0" d="M204.6,215.75c-0.68-0.16-1.33-0.31-2.03-0.48c0.99-4.84,1.98-9.66,2.97-14.52c1.08,0.03,2.05,0.43,3.09,0.66
		C207.28,206.19,205.95,210.95,204.6,215.75z"/>
</g>
<g>
	<path class="st0" d="M178.53,231.02c-0.13,0.71-0.24,1.35-0.36,2.05c-4.92-0.66-9.83-1.33-14.78-1.99
		c0.18-1.05,0.35-2.04,0.52-3.08c1.25,0.2,2.45,0.48,3.65,0.73c1.23,0.25,2.45,0.5,3.68,0.76c1.21,0.25,2.42,0.52,3.63,0.77
		C176.07,230.51,177.28,230.76,178.53,231.02z"/>
</g>
<g>
	<path class="st0" d="M193.45,270.77c0.69-4.94,1.37-9.84,2.05-14.77c0.69,0.07,1.34,0.14,1.98,0.21c0.1,0.43-0.79,14.19-0.97,14.86
		C195.52,271.01,194.52,270.88,193.45,270.77z"/>
</g>
<g>
	<path class="st0" d="M206.23,270.33c-0.45,0.09-0.84,0.16-1.24,0.23c-0.45,0.08-0.9,0.16-1.35,0.22c-0.4,0.05-0.54-0.06-0.59-0.47
		c-0.22-1.66-0.44-3.32-0.67-4.99c-0.29-2.15-0.58-4.31-0.86-6.46c-0.11-0.81-0.22-1.62-0.32-2.43c-0.01-0.1,0-0.21,0-0.35
		c0.65-0.11,1.29-0.22,1.99-0.35c0.3,1.21,0.52,2.43,0.78,3.64c0.26,1.21,0.51,2.42,0.76,3.63c0.25,1.22,0.5,2.45,0.75,3.67
		C205.72,267.89,205.97,269.09,206.23,270.33z"/>
</g>
<g>
	<path class="st0" d="M178.05,236.72c0.06,0.65,0.13,1.29,0.2,1.98c-4.92,0.69-9.81,1.35-14.72,2.03c-0.22-1.03-0.26-2.03-0.34-3.03
		c0.44-0.19,0.88-0.15,1.32-0.18c0.99-0.08,1.98-0.14,2.97-0.21c1.14-0.07,2.28-0.13,3.42-0.2c0.92-0.06,1.85-0.14,2.77-0.2
		c0.71-0.05,1.42-0.08,2.13-0.12c0.6-0.03,1.21-0.06,1.81-0.08C177.75,236.7,177.88,236.72,178.05,236.72z"/>
</g>
<g>
	<path class="st0" d="M228.9,216.74c0.52,0.92,1.03,1.82,1.56,2.76c-4.14,2.14-8.26,4.27-12.44,6.43c0.01-0.8-0.09-1.54-0.52-2.21
		C221.3,221.39,225.09,219.08,228.9,216.74z"/>
</g>
<g>
	<path class="st0" d="M217.71,249.47c0.38-0.81,0.28-1.62,0.31-2.43c0.32,0.08,10.38,6.16,11.19,6.76c-0.5,0.91-1.08,1.76-1.73,2.63
		C224.22,254.1,220.98,251.79,217.71,249.47z"/>
</g>
<g>
	<path class="st0" d="M218.03,242.84c0.22-0.68,0.42-1.32,0.64-1.99c3.54,0.99,7.05,1.97,10.56,2.95c0,1.01,0,2.01,0,3.06
		C225.5,245.52,221.79,244.19,218.03,242.84z"/>
</g>
<g>
	<path class="st0" d="M218.99,231.68c-0.17-0.7-0.33-1.34-0.5-2.02c3.57-1.01,7.15-2.02,10.74-3.03c0,1,0,1.95,0,2.95
		C225.84,230.27,222.43,230.97,218.99,231.68z"/>
</g>
</svg>
