<?xml version="1.0" encoding="utf-8"?>
<!-- Generator: Adobe Illustrator 23.0.2, SVG Export Plug-In . SVG Version: 6.00 Build 0)  -->
<svg version="1.1" id="Capa_1" xmlns="http://www.w3.org/2000/svg" xmlns:xlink="http://www.w3.org/1999/xlink" x="0px" y="0px"
	 viewBox="0 0 566.93 566.93" style="enable-background:new 0 0 566.93 566.93;" xml:space="preserve">
<style type="text/css">
	.st0{fill:#D37D2C;stroke:#D37D2C;stroke-miterlimit:10;}
	.st1{fill:#606060;}
	.st2{fill:#D37D2C;}
	.st3{fill:#EDC748;}
</style>
<g>
	<g>
		<path class="st0" d="M226.89,250.26v-0.13c0-9.64,7.53-17.83,17.83-17.83c10.24,0,17.77,8.06,17.77,17.7v0.13
			c0,9.64-7.6,17.83-17.9,17.83C234.35,267.96,226.89,259.91,226.89,250.26z M257.27,250.26v-0.13c0-7.33-5.48-13.34-12.68-13.34
			c-7.4,0-12.48,6.01-12.48,13.21v0.13c0,7.33,5.42,13.28,12.62,13.28C252.12,263.41,257.27,257.46,257.27,250.26z"/>
		<path class="st0" d="M271.67,235.27c0-1.39,1.12-2.58,2.51-2.58c1.45,0,2.58,1.12,2.58,2.58v6.41c2.51-5.68,7.46-9.12,11.76-9.12
			c1.52,0,2.51,1.12,2.51,2.58c0,1.39-0.92,2.38-2.25,2.58c-6.61,0.79-12.02,5.75-12.02,15.59v11.63c0,1.39-1.06,2.58-2.51,2.58
			s-2.58-1.12-2.58-2.58V235.27z"/>
		<path class="st0" d="M298.42,222.32c0-1.65,1.32-2.71,2.97-2.71c1.72,0,3.04,1.06,3.04,2.71v0.86c0,1.58-1.32,2.71-3.04,2.71
			c-1.65,0-2.97-1.12-2.97-2.71V222.32z M298.89,235.27c0-1.39,1.12-2.58,2.51-2.58c1.45,0,2.58,1.12,2.58,2.58v29.66
			c0,1.45-1.06,2.58-2.51,2.58c-1.45,0-2.58-1.12-2.58-2.58V235.27z"/>
		<path class="st0" d="M313.81,265.12v-0.13c0-0.86,0.33-1.52,1.06-2.31l21.6-25.37h-19.95c-1.19,0-2.18-0.92-2.18-2.11
			s0.99-2.18,2.18-2.18h24.38c1.39,0,2.44,0.92,2.44,2.05v0.13c0,0.86-0.33,1.52-1.06,2.31l-21.6,25.37h20.81
			c1.19,0,2.18,0.99,2.18,2.11c0,1.19-0.99,2.18-2.18,2.18h-25.23C314.94,267.17,313.81,266.25,313.81,265.12z"/>
		<path class="st0" d="M349.41,250.26v-0.13c0-9.64,7.53-17.83,17.83-17.83c10.24,0,17.77,8.06,17.77,17.7v0.13
			c0,9.64-7.6,17.83-17.9,17.83C356.88,267.96,349.41,259.91,349.41,250.26z M379.8,250.26v-0.13c0-7.33-5.48-13.34-12.68-13.34
			c-7.4,0-12.48,6.01-12.48,13.21v0.13c0,7.33,5.42,13.28,12.62,13.28C374.65,263.41,379.8,257.46,379.8,250.26z"/>
		<path class="st0" d="M394.2,235.27c0-1.39,1.12-2.58,2.51-2.58c1.45,0,2.58,1.12,2.58,2.58v3.7c2.25-3.7,5.81-6.67,11.69-6.67
			c8.26,0,13.08,5.55,13.08,13.67v18.96c0,1.45-1.12,2.58-2.51,2.58c-1.45,0-2.58-1.12-2.58-2.58v-17.7c0-6.34-3.43-10.3-9.45-10.3
			c-5.88,0-10.24,4.29-10.24,10.7v17.31c0,1.45-1.06,2.58-2.51,2.58s-2.58-1.12-2.58-2.58V235.27z"/>
		<path class="st0" d="M436.67,258.12v-20.61h-2.77c-1.19,0-2.25-1.06-2.25-2.25c0-1.25,1.06-2.25,2.25-2.25h2.77v-8.06
			c0-1.39,1.06-2.58,2.51-2.58c1.39,0,2.58,1.19,2.58,2.58v8.06h8.85c1.25,0,2.31,1.06,2.31,2.25c0,1.26-1.06,2.25-2.31,2.25h-8.85
			v19.95c0,4.16,2.31,5.68,5.75,5.68c1.78,0,2.71-0.46,3.11-0.46c1.19,0,2.18,0.99,2.18,2.18c0,0.92-0.59,1.65-1.45,1.98
			c-1.45,0.59-3.04,0.92-5.02,0.92C440.83,267.77,436.67,265.06,436.67,258.12z"/>
		<path class="st0" d="M475.51,267.96c-9.38,0-17.04-7.2-17.04-17.77v-0.13c0-9.84,6.94-17.77,16.38-17.77
			c10.11,0,15.85,8.26,15.85,17.31c0,1.39-1.12,2.38-2.38,2.38h-24.7c0.73,7.4,5.94,11.56,12.02,11.56c4.23,0,7.33-1.65,9.84-3.96
			c0.4-0.33,0.86-0.59,1.45-0.59c1.25,0,2.25,0.99,2.25,2.18c0,0.59-0.26,1.19-0.79,1.65C485.15,265.92,481.32,267.96,475.51,267.96
			z M485.61,248.21c-0.53-6.21-4.1-11.63-10.9-11.63c-5.94,0-10.44,4.95-11.1,11.63H485.61z"/>
	</g>
</g>
<g>
	<path class="st1" d="M337.32,274.74h0.22c0.09,0,0.13,0.05,0.13,0.13v9.08c0,0.09-0.05,0.13-0.13,0.13h-0.21
		c-0.07,0-0.13-0.03-0.16-0.09l-4.93-8.3v8.25c0,0.09-0.05,0.13-0.13,0.13h-0.22c-0.09,0-0.13-0.05-0.13-0.13v-9.08
		c0-0.09,0.05-0.13,0.13-0.13h0.21c0.07,0,0.13,0.03,0.16,0.09l4.93,8.3v-8.25C337.19,274.79,337.24,274.74,337.32,274.74z"/>
	<path class="st1" d="M345.24,283.77v0.19c0,0.08-0.05,0.13-0.13,0.13h-4.72h-0.09c-0.08,0-0.13-0.05-0.13-0.13v-9.08
		c0-0.08,0.05-0.13,0.13-0.13h0.36h4.38c0.08,0,0.13,0.05,0.13,0.13v0.19c0,0.08-0.05,0.13-0.13,0.13h-4.38v3.95h4.05
		c0.08,0,0.13,0.05,0.13,0.13v0.19c0,0.08-0.05,0.13-0.13,0.13h-4.05v4.03h4.45C345.2,283.63,345.24,283.68,345.24,283.77z"/>
	<path class="st1" d="M355.62,279.72v0.32v3.91c0,0.09-0.05,0.13-0.13,0.13h-0.22c-0.09,0-0.13-0.05-0.13-0.13v-1.74
		c-0.66,1.35-2.17,2.01-3.71,2.01c-2.92,0-4.9-2.15-4.9-4.82c0-2.66,2.02-4.82,4.82-4.82c1.92,0,3.58,1.12,4.23,2.75
		c0.03,0.09-0.01,0.15-0.11,0.15h-0.25c-0.07,0-0.13-0.03-0.16-0.1c-0.59-1.39-2.05-2.34-3.71-2.34c-2.53,0-4.33,1.94-4.33,4.35
		s1.76,4.35,4.42,4.35c1.82,0,3.54-0.99,3.71-2.93v-0.8h-3.52c-0.09,0-0.13-0.05-0.13-0.13v-0.19c0-0.09,0.05-0.13,0.13-0.13h3.87
		C355.57,279.59,355.62,279.64,355.62,279.72z"/>
	<path class="st1" d="M357.33,279.42c0-2.66,2.14-4.82,4.82-4.82c2.68,0,4.82,2.15,4.82,4.82s-2.14,4.82-4.82,4.82
		C359.46,284.23,357.33,282.08,357.33,279.42z M366.47,279.42c0-2.41-1.91-4.35-4.33-4.35s-4.33,1.94-4.33,4.35s1.91,4.35,4.33,4.35
		S366.47,281.82,366.47,279.42z"/>
	<path class="st1" d="M368.38,279.42c0-2.66,2.02-4.82,4.84-4.82c1.92,0,3.58,1.12,4.23,2.75c0.03,0.09-0.01,0.15-0.11,0.15h-0.25
		c-0.07,0-0.13-0.03-0.16-0.1c-0.59-1.39-2.05-2.34-3.71-2.34c-2.55,0-4.35,1.94-4.35,4.35s1.8,4.35,4.35,4.35
		c1.67,0,3.12-0.95,3.71-2.34c0.03-0.07,0.08-0.1,0.16-0.1h0.26c0.1,0,0.15,0.06,0.11,0.14c-0.65,1.63-2.31,2.76-4.24,2.76
		C370.4,284.23,368.38,282.08,368.38,279.42z"/>
	<path class="st1" d="M379.39,274.74h0.22c0.08,0,0.13,0.05,0.13,0.13v9.08c0,0.08-0.05,0.13-0.13,0.13h-0.22
		c-0.08,0-0.13-0.05-0.13-0.13v-9.08C379.25,274.79,379.3,274.74,379.39,274.74z"/>
	<path class="st1" d="M381.69,279.42c0-2.66,2.14-4.82,4.82-4.82c2.68,0,4.82,2.15,4.82,4.82s-2.14,4.82-4.82,4.82
		C383.83,284.23,381.69,282.08,381.69,279.42z M390.84,279.42c0-2.41-1.91-4.35-4.33-4.35s-4.33,1.94-4.33,4.35s1.91,4.35,4.33,4.35
		S390.84,281.82,390.84,279.42z"/>
	<path class="st1" d="M392.6,281.76c0-0.09,0.04-0.14,0.13-0.14h0.23c0.08,0,0.13,0.05,0.13,0.13c0.07,1.21,1.07,2.01,2.71,2.01
		c1.45,0,2.4-0.82,2.4-1.94c0-1.33-1.19-1.76-2.44-2.23c-1.41-0.53-2.92-0.96-2.92-2.68c0-1.37,1.2-2.33,2.76-2.33
		c1.46,0,2.72,0.93,2.79,2.31c0,0.09-0.04,0.14-0.13,0.14h-0.23c-0.08,0-0.13-0.05-0.13-0.13c-0.07-1.05-1-1.86-2.31-1.86
		c-1.41,0-2.27,0.84-2.27,1.86c0,1.34,1.22,1.74,2.5,2.22c1.39,0.54,2.86,1.01,2.86,2.68c0,1.46-1.29,2.4-2.89,2.4
		C394.01,284.23,392.67,283.33,392.6,281.76z"/>
	<path class="st1" d="M409.41,283.77v0.19c0,0.08-0.05,0.13-0.13,0.13h-4.72h-0.09c-0.08,0-0.13-0.05-0.13-0.13v-9.08
		c0-0.08,0.05-0.13,0.13-0.13h0.36h4.38c0.08,0,0.13,0.05,0.13,0.13v0.19c0,0.08-0.05,0.13-0.13,0.13h-4.38v3.95h4.05
		c0.08,0,0.13,0.05,0.13,0.13v0.19c0,0.08-0.05,0.13-0.13,0.13h-4.05v4.03h4.45C409.36,283.63,409.41,283.68,409.41,283.77z"/>
	<path class="st1" d="M415.19,274.74h0.22c0.08,0,0.13,0.05,0.13,0.13v9.08c0,0.08-0.05,0.13-0.13,0.13h-0.22
		c-0.08,0-0.13-0.05-0.13-0.13v-9.08C415.06,274.79,415.11,274.74,415.19,274.74z"/>
	<path class="st1" d="M423.6,274.74h0.22c0.09,0,0.13,0.05,0.13,0.13v9.08c0,0.09-0.05,0.13-0.13,0.13h-0.21
		c-0.07,0-0.13-0.03-0.16-0.09l-4.93-8.3v8.25c0,0.09-0.05,0.13-0.13,0.13h-0.22c-0.09,0-0.13-0.05-0.13-0.13v-9.08
		c0-0.09,0.05-0.13,0.13-0.13h0.21c0.07,0,0.13,0.03,0.16,0.09l4.93,8.3v-8.25C423.47,274.79,423.51,274.74,423.6,274.74z"/>
	<path class="st1" d="M428.91,283.98l-3.43-9.09c-0.03-0.09,0.02-0.15,0.11-0.15h0.24c0.08,0,0.13,0.03,0.15,0.11l3.24,8.66
		l3.24-8.66c0.03-0.07,0.08-0.11,0.15-0.11h0.24c0.1,0,0.15,0.06,0.11,0.15l-3.43,9.09c-0.03,0.07-0.08,0.11-0.15,0.11h-0.31
		C428.99,284.09,428.94,284.05,428.91,283.98z"/>
	<path class="st1" d="M439.55,283.77v0.19c0,0.08-0.05,0.13-0.13,0.13h-4.72h-0.09c-0.08,0-0.13-0.05-0.13-0.13v-9.08
		c0-0.08,0.05-0.13,0.13-0.13h0.36h4.38c0.08,0,0.13,0.05,0.13,0.13v0.19c0,0.08-0.05,0.13-0.13,0.13h-4.38v3.95h4.05
		c0.08,0,0.13,0.05,0.13,0.13v0.19c0,0.08-0.05,0.13-0.13,0.13h-4.05v4.03h4.45C439.5,283.63,439.55,283.68,439.55,283.77z"/>
	<path class="st1" d="M448.23,284.09h-0.29c-0.07,0-0.12-0.02-0.17-0.07l-3.39-3.84h-2.48v3.78c0,0.08-0.05,0.13-0.13,0.13h-0.22
		c-0.08,0-0.13-0.05-0.13-0.13v-9.08c0-0.08,0.05-0.13,0.13-0.13h0.36h2.58c1.5,0,2.71,1.22,2.71,2.71c0,1.33-0.97,2.45-2.25,2.67
		l3.35,3.79C448.38,284.01,448.34,284.09,448.23,284.09z M441.91,279.72h2.58c1.22,0,2.22-1.02,2.22-2.26c0-1.25-1-2.26-2.22-2.26
		h-2.58V279.72z"/>
	<path class="st1" d="M448.92,281.76c0-0.09,0.04-0.14,0.13-0.14h0.23c0.08,0,0.13,0.05,0.13,0.13c0.07,1.21,1.07,2.01,2.71,2.01
		c1.45,0,2.4-0.82,2.4-1.94c0-1.33-1.19-1.76-2.44-2.23c-1.41-0.53-2.92-0.96-2.92-2.68c0-1.37,1.2-2.33,2.76-2.33
		c1.46,0,2.72,0.93,2.79,2.31c0,0.09-0.04,0.14-0.13,0.14h-0.23c-0.08,0-0.13-0.05-0.13-0.13c-0.07-1.05-1-1.86-2.31-1.86
		c-1.41,0-2.27,0.84-2.27,1.86c0,1.34,1.22,1.74,2.5,2.22c1.39,0.54,2.86,1.01,2.86,2.68c0,1.46-1.29,2.4-2.89,2.4
		C450.32,284.23,448.99,283.33,448.92,281.76z"/>
	<path class="st1" d="M457.01,274.74h0.22c0.08,0,0.13,0.05,0.13,0.13v9.08c0,0.08-0.05,0.13-0.13,0.13h-0.22
		c-0.08,0-0.13-0.05-0.13-0.13v-9.08C456.88,274.79,456.93,274.74,457.01,274.74z"/>
	<path class="st1" d="M459.32,279.42c0-2.66,2.14-4.82,4.82-4.82c2.68,0,4.82,2.15,4.82,4.82s-2.14,4.82-4.82,4.82
		C461.46,284.23,459.32,282.08,459.32,279.42z M468.46,279.42c0-2.41-1.91-4.35-4.33-4.35s-4.33,1.94-4.33,4.35s1.91,4.35,4.33,4.35
		S468.46,281.82,468.46,279.42z"/>
	<path class="st1" d="M476.47,274.74h0.22c0.09,0,0.13,0.05,0.13,0.13v9.08c0,0.09-0.05,0.13-0.13,0.13h-0.21
		c-0.07,0-0.13-0.03-0.16-0.09l-4.93-8.3v8.25c0,0.09-0.05,0.13-0.13,0.13h-0.22c-0.09,0-0.13-0.05-0.13-0.13v-9.08
		c0-0.09,0.05-0.13,0.13-0.13h0.21c0.07,0,0.13,0.03,0.16,0.09l4.93,8.3v-8.25C476.34,274.79,476.39,274.74,476.47,274.74z"/>
	<path class="st1" d="M484.39,283.77v0.19c0,0.08-0.05,0.13-0.13,0.13h-4.72h-0.09c-0.08,0-0.13-0.05-0.13-0.13v-9.08
		c0-0.08,0.05-0.13,0.13-0.13h0.36h4.38c0.08,0,0.13,0.05,0.13,0.13v0.19c0,0.08-0.05,0.13-0.13,0.13h-4.38v3.95h4.05
		c0.08,0,0.13,0.05,0.13,0.13v0.19c0,0.08-0.05,0.13-0.13,0.13h-4.05v4.03h4.45C484.35,283.63,484.39,283.68,484.39,283.77z"/>
	<path class="st1" d="M485.65,281.76c0-0.09,0.04-0.14,0.13-0.14H486c0.08,0,0.13,0.05,0.13,0.13c0.07,1.21,1.07,2.01,2.71,2.01
		c1.45,0,2.4-0.82,2.4-1.94c0-1.33-1.19-1.76-2.44-2.23c-1.41-0.53-2.92-0.96-2.92-2.68c0-1.37,1.2-2.33,2.76-2.33
		c1.46,0,2.72,0.93,2.79,2.31c0,0.09-0.04,0.14-0.13,0.14h-0.23c-0.08,0-0.13-0.05-0.13-0.13c-0.07-1.05-1-1.86-2.31-1.86
		c-1.41,0-2.27,0.84-2.27,1.86c0,1.34,1.22,1.74,2.5,2.22c1.39,0.54,2.86,1.01,2.86,2.68c0,1.46-1.29,2.4-2.89,2.4
		C487.05,284.23,485.72,283.33,485.65,281.76z"/>
</g>
<g>
	<path class="st2" d="M189.18,239.72c8.26,0,16.41,0,24.65,0c0-0.33,0-0.62,0-0.9c0-5.32,0-10.65,0-15.97c0-0.99,0.22-1.9,0.88-2.67
		c1.11-1.28,2.51-1.5,3.88-1.13c1.43,0.38,2.45,1.76,2.53,3.21c0.01,0.17,0,0.34,0,0.52c0,13.73,0,27.46,0.01,41.19
		c0,1.34-0.5,2.4-1.59,3.15c-2.19,1.52-5.29,0.16-5.66-2.47c-0.05-0.34-0.05-0.69-0.05-1.03c0-5.3,0-10.6,0-15.9
		c0-0.29,0-0.58,0-0.85c-0.6-0.17-23.77-0.21-24.65-0.04c0,0.27,0,0.56,0,0.85c0,5.47-0.03,10.94,0.02,16.42
		c0.02,2.09-1.99,4.12-4.46,3.58c-1.44-0.31-2.58-1.52-2.79-3c-0.05-0.34-0.06-0.69-0.06-1.03c0-13.56,0-27.11-0.01-40.67
		c0-0.99,0.19-1.9,0.8-2.7c0.94-1.23,2.48-1.62,3.91-1.22c1.46,0.41,2.49,1.7,2.59,3.17c0.01,0.22,0.01,0.44,0.01,0.67
		c0,5.3,0,10.6,0,15.9C189.18,239.06,189.18,239.36,189.18,239.72z"/>
</g>
<g>
	<path class="st3" d="M150.88,176.2c1.93-0.05,3.77-0.11,5.66-0.16c0,9.14,0,18.18,0,27.28c-1.23,0-2.45,0-3.78,0
		c-0.09-0.85-0.2-1.7-0.26-2.55c-0.18-2.69-0.33-5.39-0.5-8.08c-0.09-1.42-0.2-2.84-0.29-4.26c-0.15-2.2-0.29-4.41-0.45-6.61
		c-0.11-1.51-0.26-3.03-0.38-4.54C150.86,176.97,150.88,176.66,150.88,176.2z"/>
	<path class="st3" d="M156.54,176.04c-1.89,0.05-3.73,0.11-5.66,0.16c0,0.45-0.02,0.77,0,1.09c0.12,1.51,0.27,3.03,0.38,4.54
		c0.16,2.2,0.3,4.4,0.45,6.61c0.1,1.42,0.2,2.84,0.29,4.26c0.17,2.69,0.32,5.39,0.5,8.08c0.06,0.85,0.17,1.69,0.25,2.55
		c1.32,0,2.54,0,3.78,0C156.54,194.23,156.54,185.18,156.54,176.04L156.54,176.04z"/>
</g>
<g>
	<path class="st3" d="M124.65,262.32c0.8,1.06,1.54,2.03,2.33,3.06c-7.06,5.76-14.08,11.49-21.17,17.27
		c-1.18-1.56-2.3-3.04-3.49-4.62C109.77,272.77,117.18,267.58,124.65,262.32z"/>
	<path class="st3" d="M124.65,262.32c-7.48,5.26-14.88,10.45-22.33,15.71c1.19,1.58,2.32,3.06,3.49,4.62
		c7.09-5.78,14.11-11.51,21.17-17.27C126.2,264.34,125.46,263.37,124.65,262.32L124.65,262.32z"/>
</g>
<g>
	<path class="st3" d="M185.27,182.97c1.71,0.97,3.35,1.89,5.06,2.85c-4.76,7.79-9.49,15.52-14.24,23.28
		c-0.31-0.16-0.57-0.28-0.82-0.42c-0.83-0.47-1.66-0.94-2.53-1.44C176.91,199.15,181.06,191.11,185.27,182.97z"/>
	<path class="st3" d="M185.27,182.97c-4.21,8.14-8.36,16.18-12.54,24.26c0.88,0.5,1.7,0.97,2.53,1.44c0.25,0.14,0.51,0.27,0.82,0.42
		c4.75-7.76,9.47-15.49,14.24-23.28C188.62,184.86,186.98,183.93,185.27,182.97L185.27,182.97z"/>
</g>
<g>
	<path class="st3" d="M118.88,294.61c-1.56-1.18-3.06-2.32-4.62-3.51c5.79-7.07,11.53-14.08,17.31-21.13
		c1.02,0.77,2.01,1.53,3.07,2.33C129.38,279.73,124.15,287.13,118.88,294.61z"/>
	<path class="st3" d="M131.56,269.97c-5.78,7.05-11.51,14.06-17.31,21.13c1.57,1.19,3.07,2.33,4.62,3.51
		c5.28-7.47,10.5-14.88,15.75-22.31C133.57,271.5,132.58,270.74,131.56,269.97L131.56,269.97z"/>
</g>
<g>
	<path class="st3" d="M108.82,196.13c6.68,6.27,13.28,12.45,19.92,18.68c-0.45,0.53-0.86,1.01-1.27,1.49
		c-0.4,0.46-0.81,0.92-1.25,1.42c-7.07-5.74-14.1-11.45-21.2-17.22C106.27,199.06,107.51,197.64,108.82,196.13z"/>
	<path class="st3" d="M108.82,196.13c-1.31,1.51-2.55,2.93-3.81,4.38c7.1,5.77,14.13,11.48,21.2,17.22
		c0.45-0.51,0.85-0.96,1.25-1.42c0.41-0.48,0.82-0.96,1.27-1.49C122.1,208.58,115.51,202.4,108.82,196.13L108.82,196.13z"/>
</g>
<g>
	<path class="st3" d="M184.1,215.59c-0.98-0.86-1.89-1.65-2.84-2.49c0.38-0.46,0.66-0.82,0.97-1.16c1.49-1.6,3-3.19,4.49-4.8
		c1.81-1.95,3.6-3.9,5.41-5.85c1.53-1.64,3.07-3.26,4.59-4.9c0.74-0.79,1.46-1.6,2.2-2.39c0.28-0.3,0.6-0.58,0.85-0.81
		c1.29,1.29,2.55,2.55,3.9,3.89c-0.08,0.11-0.2,0.39-0.4,0.58c-1.78,1.7-3.56,3.39-5.36,5.08c-1.42,1.33-2.85,2.65-4.27,3.97
		c-1.75,1.63-3.49,3.25-5.24,4.88c-1.17,1.09-2.34,2.18-3.51,3.27C184.62,215.14,184.32,215.39,184.1,215.59z"/>
	<path class="st3" d="M199.77,193.2c-0.25,0.23-0.56,0.51-0.85,0.81c-0.74,0.79-1.46,1.6-2.2,2.39c-1.53,1.64-3.07,3.26-4.59,4.9
		c-1.81,1.94-3.61,3.9-5.41,5.85c-1.49,1.6-3,3.19-4.49,4.8c-0.31,0.33-0.58,0.69-0.97,1.16c0.96,0.84,1.86,1.63,2.84,2.49
		c0.22-0.19,0.52-0.45,0.8-0.71c1.17-1.09,2.34-2.18,3.51-3.27c1.75-1.63,3.49-3.25,5.24-4.88c1.42-1.32,2.85-2.64,4.27-3.97
		c1.79-1.68,3.58-3.38,5.36-5.08c0.2-0.19,0.32-0.46,0.4-0.58C202.32,195.75,201.06,194.49,199.77,193.2L199.77,193.2z"/>
</g>
<g>
	<path class="st3" d="M96.07,215.79c0.62-1.89,1.56-3.53,2.41-5.28c8.08,4.22,16.09,8.4,24.18,12.62c-0.54,1.13-1.07,2.23-1.58,3.3
		c-0.05,0.03-0.07,0.05-0.09,0.05c-0.02,0.01-0.05,0.02-0.07,0.01c-0.09-0.02-0.19-0.04-0.28-0.07
		C112.47,222.9,104.31,219.36,96.07,215.79z"/>
	<path class="st3" d="M98.48,210.51c-0.85,1.75-1.79,3.38-2.41,5.28c8.24,3.57,16.4,7.11,24.56,10.64c0.09,0.04,0.19,0.05,0.28,0.07
		c0,0,0.01,0,0.01,0c0.02,0,0.04-0.01,0.06-0.01c0.02-0.01,0.04-0.02,0.09-0.05c0.51-1.07,1.04-2.17,1.58-3.3
		C114.57,218.91,106.56,214.73,98.48,210.51L98.48,210.51z"/>
</g>
<g>
	<path class="st3" d="M196.39,292.06c-5.77-7.13-11.45-14.15-17.18-21.23c0.91-0.79,1.78-1.56,2.64-2.31
		c1.15,0.5,1.82,1.48,2.62,2.29c0.88,0.89,1.7,1.84,2.56,2.75c1.67,1.8,3.35,3.6,5.03,5.39c1.21,1.29,2.43,2.58,3.64,3.87
		c1.53,1.63,3.06,3.26,4.59,4.89c0.15,0.16,0.26,0.35,0.43,0.58C199.3,289.53,197.9,290.75,196.39,292.06z"/>
	<path class="st3" d="M181.86,268.52c-0.86,0.75-1.74,1.52-2.64,2.31c5.73,7.08,11.41,14.1,17.18,21.23c1.5-1.3,2.91-2.53,4.33-3.76
		c-0.17-0.23-0.29-0.42-0.43-0.58c-1.53-1.63-3.06-3.26-4.59-4.89c-1.21-1.29-2.43-2.57-3.64-3.87c-1.68-1.79-3.35-3.59-5.03-5.39
		c-0.85-0.92-1.68-1.86-2.56-2.75C183.67,270,183.01,269.02,181.86,268.52L181.86,268.52z"/>
</g>
<g>
	<path class="st3" d="M136.84,208.46c-1.09,0.71-2.13,1.39-3.21,2.1c-5.23-7.37-10.44-14.71-15.69-22.12
		c1.45-1.32,3.06-2.31,4.81-3.22C127.46,192.98,132.13,200.69,136.84,208.46z"/>
	<path class="st3" d="M122.75,185.22c-1.75,0.91-3.36,1.9-4.81,3.22c5.26,7.41,10.46,14.75,15.69,22.12
		c1.08-0.71,2.13-1.39,3.21-2.1C132.13,200.69,127.46,192.98,122.75,185.22L122.75,185.22z"/>
</g>
<g>
	<path class="st3" d="M181.16,301.1c-3.62-8.39-7.2-16.69-10.81-25.07c1.14-0.54,2.24-1.07,3.42-1.63c0.33,0.58,0.66,1.15,0.96,1.73
		c1.61,3.1,3.2,6.21,4.81,9.31c2.02,3.88,4.05,7.76,6.07,11.64c0.26,0.5,0.47,1.02,0.73,1.58
		C184.6,299.47,182.92,300.26,181.16,301.1z"/>
	<path class="st3" d="M173.77,274.39c-1.18,0.56-2.28,1.09-3.42,1.63c3.61,8.38,7.19,16.68,10.81,25.07
		c1.76-0.83,3.45-1.63,5.18-2.45c-0.26-0.56-0.47-1.08-0.73-1.58c-2.02-3.88-4.05-7.76-6.07-11.64c-1.61-3.1-3.2-6.21-4.81-9.31
		C174.43,275.54,174.09,274.98,173.77,274.39L173.77,274.39z"/>
</g>
<g>
	<path class="st3" d="M134.75,302.47c-1.94-0.45-3.64-1.21-5.42-2.05c3.64-8.31,7.27-16.58,10.93-24.93
		c1.19,0.48,2.34,0.94,3.55,1.42C140.78,285.44,137.78,293.9,134.75,302.47z"/>
	<path class="st3" d="M140.26,275.48c-3.66,8.36-7.29,16.62-10.93,24.93c1.78,0.84,3.47,1.6,5.42,2.05
		c3.03-8.56,6.04-17.03,9.06-25.56C142.6,276.42,141.45,275.96,140.26,275.48L140.26,275.48z"/>
</g>
<g>
	<path class="st3" d="M139.04,178.29c2.43,8.76,4.84,17.45,7.28,26.23c-1.21,0.39-2.39,0.77-3.64,1.16
		c-3.04-8.52-6.07-16.99-9.13-25.55C135.27,179.24,137.1,178.8,139.04,178.29z"/>
	<path class="st3" d="M139.04,178.29c-1.94,0.51-3.77,0.96-5.48,1.84c3.06,8.55,6.08,17.02,9.13,25.55c1.24-0.4,2.42-0.78,3.64-1.16
		C143.88,195.74,141.47,187.05,139.04,178.29L139.04,178.29z"/>
</g>
<g>
	<path class="st3" d="M94.33,262.21c8.59-3.03,17.13-6.04,25.74-9.08c0.47,1.17,0.92,2.33,1.41,3.55
		c-8.36,3.64-16.65,7.26-25.03,10.92C95.74,265.78,95.05,264.03,94.33,262.21z"/>
	<path class="st3" d="M120.08,253.13c-8.61,3.04-17.15,6.05-25.74,9.08c0.72,1.83,1.41,3.58,2.12,5.39
		c8.38-3.65,16.68-7.27,25.03-10.92C121,255.46,120.54,254.3,120.08,253.13L120.08,253.13z"/>
</g>
<g>
	<path class="st3" d="M166.72,204.84c-1.24-0.29-2.43-0.58-3.71-0.88c1.81-8.85,3.62-17.67,5.43-26.56c1.97,0.05,3.75,0.78,5.66,1.2
		C171.64,187.37,169.19,196.06,166.72,204.84z"/>
	<path class="st3" d="M168.45,177.4c-1.82,8.89-3.62,17.7-5.43,26.56c1.28,0.3,2.46,0.58,3.71,0.88c2.47-8.77,4.92-17.47,7.39-26.24
		C172.2,178.18,170.42,177.45,168.45,177.4L168.45,177.4z"/>
</g>
<g>
	<path class="st3" d="M119.05,232.76c-0.23,1.3-0.44,2.47-0.67,3.75c-9-1.21-17.97-2.42-27.02-3.65c0.33-1.92,0.63-3.73,0.96-5.64
		c2.29,0.37,4.48,0.88,6.68,1.34c2.24,0.46,4.48,0.92,6.72,1.39c2.22,0.46,4.43,0.95,6.64,1.41
		C114.57,231.83,116.78,232.29,119.05,232.76z"/>
	<path class="st3" d="M92.32,227.23c-0.32,1.91-0.63,3.72-0.96,5.64c9.06,1.22,18.02,2.43,27.02,3.65c0.23-1.27,0.44-2.45,0.67-3.75
		c-2.27-0.47-4.49-0.93-6.69-1.4c-2.22-0.47-4.43-0.95-6.64-1.41c-2.24-0.47-4.48-0.93-6.72-1.39
		C96.79,228.11,94.6,227.6,92.32,227.23L92.32,227.23z"/>
</g>
<g>
	<path class="st3" d="M146.35,305.45c1.26-9.03,2.5-18,3.76-27.01c1.26,0.13,2.45,0.26,3.62,0.38c0.18,0.79-1.45,25.95-1.77,27.18
		C150.13,305.9,148.29,305.65,146.35,305.45z"/>
	<path class="st3" d="M150.1,278.44c-1.25,9.01-2.5,17.99-3.76,27.01c1.95,0.2,3.78,0.44,5.61,0.55c0.32-1.24,1.95-26.39,1.77-27.18
		C152.55,278.7,151.36,278.57,150.1,278.44L150.1,278.44z"/>
</g>
<g>
	<path class="st3" d="M169.71,304.65c-0.82,0.16-1.54,0.3-2.26,0.43c-0.82,0.14-1.65,0.29-2.48,0.4c-0.74,0.1-0.98-0.12-1.08-0.85
		c-0.41-3.04-0.81-6.08-1.22-9.12c-0.53-3.94-1.05-7.87-1.58-11.81c-0.2-1.48-0.4-2.97-0.59-4.45c-0.02-0.19,0-0.39,0-0.64
		c1.18-0.21,2.36-0.41,3.64-0.63c0.56,2.21,0.94,4.44,1.42,6.66c0.48,2.21,0.93,4.42,1.38,6.63c0.46,2.24,0.91,4.47,1.38,6.71
		C168.78,300.18,169.24,302.39,169.71,304.65z"/>
	<path class="st3" d="M164.14,277.98c-1.28,0.22-2.46,0.43-3.64,0.63c0,0.25-0.02,0.44,0,0.64c0.19,1.48,0.39,2.97,0.59,4.45
		c0.53,3.94,1.05,7.87,1.58,11.81c0.41,3.04,0.81,6.08,1.22,9.12c0.08,0.63,0.28,0.88,0.79,0.88c0.09,0,0.19-0.01,0.3-0.02
		c0.83-0.11,1.65-0.25,2.48-0.4c0.72-0.13,1.44-0.27,2.26-0.43c-0.47-2.27-0.93-4.47-1.39-6.67c-0.46-2.24-0.91-4.47-1.38-6.71
		c-0.46-2.21-0.9-4.43-1.38-6.63C165.08,282.42,164.7,280.18,164.14,277.98L164.14,277.98z"/>
</g>
<g>
	<path class="st3" d="M118.18,243.2c0.12,1.2,0.23,2.36,0.36,3.63c-9,1.26-17.93,2.47-26.91,3.7c-0.4-1.88-0.48-3.7-0.63-5.54
		c0.8-0.35,1.62-0.27,2.41-0.34c1.81-0.14,3.62-0.26,5.44-0.38c2.08-0.13,4.17-0.24,6.25-0.37c1.69-0.11,3.38-0.26,5.07-0.37
		c1.3-0.09,2.6-0.15,3.9-0.22c1.1-0.06,2.21-0.1,3.31-0.15C117.62,243.16,117.87,243.18,118.18,243.2z"/>
	<path class="st3" d="M117.48,243.16c-0.03,0-0.07,0-0.1,0c-1.1,0.04-2.21,0.09-3.31,0.15c-1.3,0.07-2.6,0.13-3.9,0.22
		c-1.69,0.11-3.38,0.26-5.07,0.37c-2.08,0.14-4.17,0.24-6.25,0.37c-1.81,0.11-3.63,0.23-5.44,0.38c-0.8,0.06-1.62-0.01-2.41,0.34
		c0.15,1.84,0.23,3.67,0.63,5.54c8.98-1.23,17.92-2.45,26.91-3.7c-0.13-1.27-0.24-2.43-0.36-3.63
		C117.91,243.19,117.69,243.16,117.48,243.16L117.48,243.16z"/>
</g>
<g>
	<path class="st3" d="M211.17,206.65c0.95,1.68,1.88,3.32,2.85,5.05c-7.57,3.92-15.1,7.81-22.74,11.77
		c0.01-1.47-0.16-2.81-0.96-4.05C197.28,215.16,204.19,210.92,211.17,206.65z"/>
	<path class="st3" d="M211.17,206.65c-6.98,4.27-13.89,8.51-20.85,12.77c0.8,1.24,0.97,2.58,0.96,4.05
		c7.65-3.96,15.17-7.85,22.74-11.77C213.05,209.98,212.12,208.33,211.17,206.65L211.17,206.65z"/>
</g>
<g>
	<path class="st3" d="M190.71,266.5c0.7-1.47,0.51-2.97,0.56-4.44c0.58,0.14,18.99,11.27,20.47,12.36
		c-0.91,1.66-1.98,3.23-3.16,4.81C202.61,274.97,196.68,270.76,190.71,266.5z"/>
	<path class="st3" d="M191.27,262.06c-0.05,1.47,0.14,2.96-0.56,4.44c5.98,4.26,11.9,8.47,17.88,12.73
		c1.18-1.58,2.25-3.14,3.16-4.81C210.25,273.33,191.85,262.21,191.27,262.06L191.27,262.06z"/>
</g>
<g>
	<path class="st3" d="M191.3,254.39c0.4-1.23,0.77-2.42,1.17-3.64c6.48,1.81,12.89,3.6,19.31,5.4c0,1.85,0,3.67,0,5.6
		C204.95,259.29,198.16,256.85,191.3,254.39z"/>
	<path class="st3" d="M192.47,250.75c-0.39,1.22-0.77,2.4-1.17,3.64c6.86,2.47,13.65,4.9,20.48,7.36c0-1.93,0-3.75,0-5.6
		C205.35,254.35,198.95,252.56,192.47,250.75L192.47,250.75z"/>
</g>
<g>
	<path class="st3" d="M193.04,233.97c-0.31-1.28-0.6-2.44-0.91-3.7c6.54-1.84,13.07-3.69,19.65-5.54c0,1.82,0,3.57,0,5.39
		C205.57,231.4,199.35,232.67,193.04,233.97z"/>
	<path class="st3" d="M211.78,224.72c-6.58,1.86-13.11,3.7-19.65,5.54c0.31,1.26,0.59,2.42,0.91,3.7c6.3-1.29,12.52-2.57,18.74-3.85
		C211.78,228.29,211.78,226.55,211.78,224.72L211.78,224.72z"/>
</g>
</svg>
