<?xml version="1.0" encoding="utf-8"?>
<!-- Generator: Adobe Illustrator 23.0.2, SVG Export Plug-In . SVG Version: 6.00 Build 0)  -->
<svg version="1.1" id="Capa_1" xmlns="http://www.w3.org/2000/svg" xmlns:xlink="http://www.w3.org/1999/xlink" x="0px" y="0px"
	 viewBox="0 0 566.93 566.93" style="enable-background:new 0 0 566.93 566.93;" xml:space="preserve">
<style type="text/css">
	.st0{fill:#FFFFFF;}
</style>
<g>
	<g>
		<path class="st0" d="M237.57,288.59v-0.07c0-5.27,4.12-9.75,9.75-9.75c5.6,0,9.72,4.41,9.72,9.68v0.07c0,5.27-4.15,9.75-9.79,9.75
			C241.65,298.27,237.57,293.86,237.57,288.59z M254.18,288.59v-0.07c0-4.01-3-7.3-6.93-7.3c-4.05,0-6.83,3.29-6.83,7.22v0.07
			c0,4.01,2.96,7.26,6.9,7.26C251.36,295.77,254.18,292.52,254.18,288.59z"/>
		<path class="st0" d="M262.06,280.39c0-0.76,0.61-1.41,1.37-1.41c0.79,0,1.41,0.61,1.41,1.41v3.5c1.37-3.11,4.08-4.98,6.43-4.98
			c0.83,0,1.37,0.61,1.37,1.41c0,0.76-0.51,1.3-1.23,1.41c-3.61,0.43-6.57,3.14-6.57,8.52v6.36c0,0.76-0.58,1.41-1.37,1.41
			s-1.41-0.61-1.41-1.41V280.39z"/>
		<path class="st0" d="M276.69,273.31c0-0.9,0.72-1.48,1.63-1.48c0.94,0,1.66,0.58,1.66,1.48v0.47c0,0.87-0.72,1.48-1.66,1.48
			c-0.9,0-1.63-0.61-1.63-1.48V273.31z M276.94,280.39c0-0.76,0.61-1.41,1.37-1.41c0.79,0,1.41,0.61,1.41,1.41v16.22
			c0,0.79-0.58,1.41-1.37,1.41s-1.41-0.61-1.41-1.41V280.39z"/>
		<path class="st0" d="M285.1,296.71v-0.07c0-0.47,0.18-0.83,0.58-1.26l11.81-13.87h-10.91c-0.65,0-1.19-0.51-1.19-1.16
			c0-0.65,0.54-1.19,1.19-1.19h13.33c0.76,0,1.34,0.51,1.34,1.12v0.07c0,0.47-0.18,0.83-0.58,1.26l-11.81,13.87h11.38
			c0.65,0,1.19,0.54,1.19,1.16c0,0.65-0.54,1.19-1.19,1.19h-13.8C285.72,297.83,285.1,297.33,285.1,296.71z"/>
		<path class="st0" d="M304.57,288.59v-0.07c0-5.27,4.12-9.75,9.75-9.75c5.6,0,9.72,4.41,9.72,9.68v0.07c0,5.27-4.15,9.75-9.79,9.75
			C308.65,298.27,304.57,293.86,304.57,288.59z M321.18,288.59v-0.07c0-4.01-3-7.3-6.93-7.3c-4.04,0-6.83,3.29-6.83,7.22v0.07
			c0,4.01,2.96,7.26,6.9,7.26C318.37,295.77,321.18,292.52,321.18,288.59z"/>
		<path class="st0" d="M329.06,280.39c0-0.76,0.61-1.41,1.37-1.41c0.79,0,1.41,0.61,1.41,1.41v2.02c1.23-2.02,3.18-3.65,6.39-3.65
			c4.51,0,7.15,3.03,7.15,7.48v10.37c0,0.79-0.61,1.41-1.37,1.41c-0.79,0-1.41-0.61-1.41-1.41v-9.68c0-3.47-1.88-5.63-5.17-5.63
			c-3.21,0-5.6,2.35-5.6,5.85v9.46c0,0.79-0.58,1.41-1.37,1.41c-0.79,0-1.41-0.61-1.41-1.41V280.39z"/>
		<path class="st0" d="M352.29,292.88v-11.27h-1.52c-0.65,0-1.23-0.58-1.23-1.23c0-0.69,0.58-1.23,1.23-1.23h1.52v-4.41
			c0-0.76,0.58-1.41,1.37-1.41c0.76,0,1.41,0.65,1.41,1.41v4.41h4.84c0.69,0,1.26,0.58,1.26,1.23c0,0.69-0.58,1.23-1.26,1.23h-4.84
			v10.91c0,2.28,1.26,3.11,3.14,3.11c0.98,0,1.48-0.25,1.7-0.25c0.65,0,1.19,0.54,1.19,1.19c0,0.5-0.33,0.9-0.79,1.08
			c-0.79,0.33-1.66,0.51-2.75,0.51C354.56,298.16,352.29,296.68,352.29,292.88z"/>
		<path class="st0" d="M373.52,298.27c-5.13,0-9.32-3.94-9.32-9.72v-0.07c0-5.38,3.79-9.72,8.96-9.72c5.53,0,8.67,4.51,8.67,9.46
			c0,0.76-0.61,1.3-1.3,1.3h-13.51c0.4,4.04,3.25,6.32,6.57,6.32c2.31,0,4.01-0.9,5.38-2.17c0.22-0.18,0.47-0.33,0.79-0.33
			c0.69,0,1.23,0.54,1.23,1.19c0,0.33-0.14,0.65-0.43,0.9C378.8,297.15,376.7,298.27,373.52,298.27z M379.05,287.47
			c-0.29-3.39-2.24-6.36-5.96-6.36c-3.25,0-5.71,2.71-6.07,6.36H379.05z"/>
	</g>
</g>
<g>
	<path class="st0" d="M297.96,301.97h0.12c0.05,0,0.07,0.03,0.07,0.07v4.97c0,0.05-0.03,0.07-0.07,0.07h-0.11
		c-0.04,0-0.07-0.01-0.09-0.05l-2.7-4.54v4.52c0,0.05-0.03,0.07-0.07,0.07h-0.12c-0.05,0-0.07-0.03-0.07-0.07v-4.97
		c0-0.05,0.03-0.07,0.07-0.07h0.11c0.04,0,0.07,0.01,0.09,0.05l2.7,4.54v-4.52C297.89,301.99,297.92,301.97,297.96,301.97z"/>
	<path class="st0" d="M302.29,306.91v0.1c0,0.05-0.03,0.07-0.07,0.07h-2.58h-0.05c-0.05,0-0.07-0.03-0.07-0.07v-4.97
		c0-0.05,0.03-0.07,0.07-0.07h0.19h2.4c0.05,0,0.07,0.03,0.07,0.07v0.1c0,0.05-0.03,0.07-0.07,0.07h-2.4v2.16H302
		c0.05,0,0.07,0.03,0.07,0.07v0.1c0,0.05-0.03,0.07-0.07,0.07h-2.22v2.21h2.44C302.27,306.84,302.29,306.86,302.29,306.91z"/>
	<path class="st0" d="M307.97,304.7v0.17v2.14c0,0.05-0.03,0.07-0.07,0.07h-0.12c-0.05,0-0.07-0.03-0.07-0.07v-0.95
		c-0.36,0.74-1.19,1.1-2.03,1.1c-1.6,0-2.68-1.18-2.68-2.64c0-1.46,1.11-2.64,2.64-2.64c1.05,0,1.96,0.61,2.31,1.5
		c0.02,0.05-0.01,0.08-0.06,0.08h-0.14c-0.04,0-0.07-0.02-0.09-0.06c-0.32-0.76-1.12-1.28-2.03-1.28c-1.38,0-2.37,1.06-2.37,2.38
		c0,1.32,0.96,2.38,2.42,2.38c1,0,1.94-0.54,2.03-1.6v-0.44h-1.92c-0.05,0-0.07-0.03-0.07-0.07v-0.1c0-0.05,0.03-0.07,0.07-0.07
		h2.12C307.94,304.62,307.97,304.65,307.97,304.7z"/>
	<path class="st0" d="M308.9,304.53c0-1.46,1.17-2.64,2.64-2.64s2.64,1.18,2.64,2.64c0,1.46-1.17,2.64-2.64,2.64
		S308.9,305.98,308.9,304.53z M313.9,304.53c0-1.32-1.05-2.38-2.37-2.38s-2.37,1.06-2.37,2.38c0,1.32,1.05,2.38,2.37,2.38
		S313.9,305.84,313.9,304.53z"/>
	<path class="st0" d="M314.95,304.53c0-1.46,1.11-2.64,2.65-2.64c1.05,0,1.96,0.61,2.31,1.5c0.02,0.05-0.01,0.08-0.06,0.08h-0.14
		c-0.04,0-0.07-0.02-0.09-0.06c-0.32-0.76-1.12-1.28-2.03-1.28c-1.4,0-2.38,1.06-2.38,2.38c0,1.32,0.98,2.38,2.38,2.38
		c0.92,0,1.71-0.52,2.03-1.28c0.02-0.04,0.05-0.06,0.09-0.06h0.14c0.05,0,0.08,0.03,0.06,0.08c-0.36,0.89-1.26,1.51-2.32,1.51
		C316.05,307.16,314.95,305.98,314.95,304.53z"/>
	<path class="st0" d="M320.96,301.97h0.12c0.05,0,0.07,0.03,0.07,0.07v4.97c0,0.05-0.03,0.07-0.07,0.07h-0.12
		c-0.05,0-0.07-0.03-0.07-0.07v-4.97C320.89,302,320.92,301.97,320.96,301.97z"/>
	<path class="st0" d="M322.22,304.53c0-1.46,1.17-2.64,2.64-2.64s2.64,1.18,2.64,2.64c0,1.46-1.17,2.64-2.64,2.64
		S322.22,305.98,322.22,304.53z M327.23,304.53c0-1.32-1.05-2.38-2.37-2.38s-2.37,1.06-2.37,2.38c0,1.32,1.05,2.38,2.37,2.38
		S327.23,305.84,327.23,304.53z"/>
	<path class="st0" d="M328.19,305.81c0-0.05,0.02-0.08,0.07-0.08h0.12c0.04,0,0.07,0.03,0.07,0.07c0.04,0.67,0.58,1.1,1.49,1.1
		c0.79,0,1.31-0.45,1.31-1.06c0-0.73-0.65-0.96-1.34-1.22c-0.77-0.29-1.6-0.53-1.6-1.47c0-0.75,0.66-1.27,1.51-1.27
		c0.8,0,1.49,0.51,1.53,1.26c0,0.05-0.02,0.08-0.07,0.08h-0.12c-0.04,0-0.07-0.03-0.07-0.07c-0.04-0.58-0.54-1.02-1.26-1.02
		c-0.77,0-1.25,0.46-1.25,1.02c0,0.74,0.67,0.95,1.37,1.22c0.76,0.29,1.56,0.56,1.56,1.47c0,0.8-0.7,1.31-1.58,1.31
		C328.96,307.16,328.23,306.67,328.19,305.81z"/>
	<path class="st0" d="M337.38,306.91v0.1c0,0.05-0.03,0.07-0.07,0.07h-2.58h-0.05c-0.05,0-0.07-0.03-0.07-0.07v-4.97
		c0-0.05,0.03-0.07,0.07-0.07h0.2h2.4c0.05,0,0.07,0.03,0.07,0.07v0.1c0,0.05-0.03,0.07-0.07,0.07h-2.4v2.16h2.22
		c0.05,0,0.07,0.03,0.07,0.07v0.1c0,0.05-0.03,0.07-0.07,0.07h-2.22v2.21h2.44C337.36,306.84,337.38,306.86,337.38,306.91z"/>
	<path class="st0" d="M340.54,301.97h0.12c0.05,0,0.07,0.03,0.07,0.07v4.97c0,0.05-0.03,0.07-0.07,0.07h-0.12
		c-0.05,0-0.07-0.03-0.07-0.07v-4.97C340.47,302,340.5,301.97,340.54,301.97z"/>
	<path class="st0" d="M345.14,301.97h0.12c0.05,0,0.07,0.03,0.07,0.07v4.97c0,0.05-0.03,0.07-0.07,0.07h-0.11
		c-0.04,0-0.07-0.01-0.09-0.05l-2.7-4.54v4.52c0,0.05-0.03,0.07-0.07,0.07h-0.12c-0.05,0-0.07-0.03-0.07-0.07v-4.97
		c0-0.05,0.03-0.07,0.07-0.07h0.11c0.04,0,0.07,0.01,0.09,0.05l2.7,4.54v-4.52C345.07,301.99,345.1,301.97,345.14,301.97z"/>
	<path class="st0" d="M348.05,307.03l-1.88-4.97c-0.02-0.05,0.01-0.08,0.06-0.08h0.13c0.04,0,0.07,0.02,0.08,0.06l1.77,4.74
		l1.77-4.74c0.01-0.04,0.04-0.06,0.08-0.06h0.13c0.05,0,0.08,0.03,0.06,0.08l-1.88,4.97c-0.01,0.04-0.04,0.06-0.08,0.06h-0.17
		C348.09,307.08,348.06,307.06,348.05,307.03z"/>
	<path class="st0" d="M353.86,306.91v0.1c0,0.05-0.03,0.07-0.07,0.07h-2.58h-0.05c-0.05,0-0.07-0.03-0.07-0.07v-4.97
		c0-0.05,0.03-0.07,0.07-0.07h0.19h2.4c0.05,0,0.07,0.03,0.07,0.07v0.1c0,0.05-0.03,0.07-0.07,0.07h-2.4v2.16h2.22
		c0.05,0,0.07,0.03,0.07,0.07v0.1c0,0.05-0.03,0.07-0.07,0.07h-2.22v2.21h2.44C353.84,306.84,353.86,306.86,353.86,306.91z"/>
	<path class="st0" d="M358.61,307.08h-0.16c-0.04,0-0.07-0.01-0.09-0.04l-1.85-2.1h-1.36v2.07c0,0.05-0.03,0.07-0.07,0.07h-0.12
		c-0.05,0-0.07-0.03-0.07-0.07v-4.97c0-0.05,0.03-0.07,0.07-0.07h0.19h1.41c0.82,0,1.49,0.67,1.49,1.49c0,0.73-0.53,1.34-1.23,1.46
		l1.83,2.08C358.69,307.04,358.68,307.08,358.61,307.08z M355.15,304.69h1.41c0.67,0,1.22-0.56,1.22-1.24
		c0-0.68-0.55-1.24-1.22-1.24h-1.41V304.69z"/>
	<path class="st0" d="M358.98,305.81c0-0.05,0.02-0.08,0.07-0.08h0.12c0.04,0,0.07,0.03,0.07,0.07c0.04,0.67,0.58,1.1,1.49,1.1
		c0.79,0,1.31-0.45,1.31-1.06c0-0.73-0.65-0.96-1.34-1.22c-0.77-0.29-1.6-0.53-1.6-1.47c0-0.75,0.66-1.27,1.51-1.27
		c0.8,0,1.49,0.51,1.53,1.26c0,0.05-0.02,0.08-0.07,0.08h-0.12c-0.04,0-0.07-0.03-0.07-0.07c-0.04-0.58-0.54-1.02-1.26-1.02
		c-0.77,0-1.25,0.46-1.25,1.02c0,0.74,0.67,0.95,1.37,1.22c0.76,0.29,1.56,0.56,1.56,1.47c0,0.8-0.7,1.31-1.58,1.31
		C359.75,307.16,359.02,306.67,358.98,305.81z"/>
	<path class="st0" d="M363.41,301.97h0.12c0.05,0,0.07,0.03,0.07,0.07v4.97c0,0.05-0.03,0.07-0.07,0.07h-0.12
		c-0.05,0-0.07-0.03-0.07-0.07v-4.97C363.34,302,363.37,301.97,363.41,301.97z"/>
	<path class="st0" d="M364.67,304.53c0-1.46,1.17-2.64,2.64-2.64s2.64,1.18,2.64,2.64c0,1.46-1.17,2.64-2.64,2.64
		S364.67,305.98,364.67,304.53z M369.68,304.53c0-1.32-1.05-2.38-2.37-2.38s-2.37,1.06-2.37,2.38c0,1.32,1.05,2.38,2.37,2.38
		S369.68,305.84,369.68,304.53z"/>
	<path class="st0" d="M374.06,301.97h0.12c0.05,0,0.07,0.03,0.07,0.07v4.97c0,0.05-0.03,0.07-0.07,0.07h-0.11
		c-0.04,0-0.07-0.01-0.09-0.05l-2.7-4.54v4.52c0,0.05-0.03,0.07-0.07,0.07h-0.12c-0.05,0-0.07-0.03-0.07-0.07v-4.97
		c0-0.05,0.03-0.07,0.07-0.07h0.11c0.04,0,0.07,0.01,0.09,0.05l2.7,4.54v-4.52C373.98,301.99,374.01,301.97,374.06,301.97z"/>
	<path class="st0" d="M378.39,306.91v0.1c0,0.05-0.03,0.07-0.07,0.07h-2.58h-0.05c-0.05,0-0.07-0.03-0.07-0.07v-4.97
		c0-0.05,0.03-0.07,0.07-0.07h0.2h2.4c0.05,0,0.07,0.03,0.07,0.07v0.1c0,0.05-0.03,0.07-0.07,0.07h-2.4v2.16h2.22
		c0.05,0,0.07,0.03,0.07,0.07v0.1c0,0.05-0.03,0.07-0.07,0.07h-2.22v2.21h2.44C378.36,306.84,378.39,306.86,378.39,306.91z"/>
	<path class="st0" d="M379.07,305.81c0-0.05,0.02-0.08,0.07-0.08h0.12c0.04,0,0.07,0.03,0.07,0.07c0.04,0.67,0.58,1.1,1.49,1.1
		c0.79,0,1.31-0.45,1.31-1.06c0-0.73-0.65-0.96-1.34-1.22c-0.77-0.29-1.6-0.53-1.6-1.47c0-0.75,0.66-1.27,1.51-1.27
		c0.8,0,1.49,0.51,1.53,1.26c0,0.05-0.02,0.08-0.07,0.08h-0.12c-0.04,0-0.07-0.03-0.07-0.07c-0.04-0.58-0.54-1.02-1.26-1.02
		c-0.77,0-1.25,0.46-1.25,1.02c0,0.74,0.67,0.95,1.37,1.22c0.76,0.29,1.56,0.56,1.56,1.47c0,0.8-0.7,1.31-1.58,1.31
		C379.84,307.16,379.11,306.67,379.07,305.81z"/>
</g>
<g>
	<path class="st0" d="M216.95,282.82c4.52,0,8.97,0,13.48,0c0-0.18,0-0.34,0-0.49c0-2.91,0-5.82,0-8.73c0-0.54,0.12-1.04,0.48-1.46
		c0.61-0.7,1.37-0.82,2.12-0.62c0.78,0.21,1.34,0.96,1.38,1.76c0.01,0.09,0,0.19,0,0.28c0,7.51,0,15.02,0,22.52
		c0,0.73-0.27,1.31-0.87,1.72c-1.2,0.83-2.89,0.09-3.09-1.35c-0.03-0.19-0.03-0.38-0.03-0.56c0-2.9,0-5.8,0-8.69
		c0-0.16,0-0.32,0-0.47c-0.33-0.09-13-0.11-13.48-0.02c0,0.15,0,0.31,0,0.46c0,2.99-0.02,5.98,0.01,8.98
		c0.01,1.14-1.09,2.25-2.44,1.96c-0.79-0.17-1.41-0.83-1.53-1.64c-0.03-0.19-0.03-0.38-0.03-0.56c0-7.41,0-14.83,0-22.24
		c0-0.54,0.1-1.04,0.44-1.48c0.51-0.68,1.36-0.89,2.14-0.67c0.8,0.22,1.36,0.93,1.41,1.73c0.01,0.12,0,0.24,0,0.36
		c0,2.9,0,5.8,0,8.69C216.95,282.46,216.95,282.62,216.95,282.82z"/>
</g>
<g>
	<path class="st0" d="M196,248.09c1.06-0.03,2.06-0.06,3.1-0.09c0,5,0,9.94,0,14.92c-0.67,0-1.34,0-2.07,0
		c-0.05-0.47-0.11-0.93-0.14-1.39c-0.1-1.47-0.18-2.95-0.28-4.42c-0.05-0.78-0.11-1.55-0.16-2.33c-0.08-1.2-0.16-2.41-0.25-3.61
		c-0.06-0.83-0.14-1.66-0.21-2.48C195.99,248.51,196,248.34,196,248.09z"/>
</g>
<g>
	<path class="st0" d="M181.66,295.18c0.44,0.58,0.84,1.11,1.27,1.67c-3.86,3.15-7.7,6.28-11.58,9.45c-0.64-0.85-1.26-1.66-1.91-2.53
		C173.52,300.89,177.57,298.06,181.66,295.18z"/>
</g>
<g>
	<path class="st0" d="M214.81,251.79c0.94,0.53,1.83,1.03,2.77,1.56c-2.6,4.26-5.19,8.48-7.79,12.73c-0.17-0.09-0.31-0.15-0.45-0.23
		c-0.45-0.26-0.91-0.52-1.39-0.79C210.24,260.63,212.51,256.24,214.81,251.79z"/>
</g>
<g>
	<path class="st0" d="M178.5,312.84c-0.85-0.65-1.67-1.27-2.53-1.92c3.17-3.87,6.31-7.7,9.46-11.56c0.56,0.42,1.1,0.84,1.68,1.27
		C184.24,304.7,181.39,308.75,178.5,312.84z"/>
</g>
<g>
	<path class="st0" d="M173,258.99c3.65,3.43,7.26,6.81,10.89,10.22c-0.25,0.29-0.47,0.55-0.7,0.81c-0.22,0.25-0.44,0.5-0.69,0.78
		c-3.87-3.14-7.71-6.26-11.59-9.42C171.61,260.59,172.29,259.81,173,258.99z"/>
</g>
<g>
	<path class="st0" d="M214.17,269.63c-0.54-0.47-1.03-0.9-1.56-1.36c0.21-0.25,0.36-0.45,0.53-0.63c0.82-0.88,1.64-1.75,2.46-2.62
		c0.99-1.06,1.97-2.13,2.96-3.2c0.83-0.9,1.68-1.78,2.51-2.68c0.4-0.43,0.8-0.87,1.2-1.3c0.16-0.17,0.33-0.31,0.46-0.44
		c0.7,0.7,1.39,1.39,2.13,2.13c-0.04,0.06-0.11,0.21-0.22,0.32c-0.97,0.93-1.95,1.86-2.93,2.78c-0.77,0.73-1.56,1.45-2.34,2.17
		c-0.96,0.89-1.91,1.78-2.86,2.67c-0.64,0.6-1.28,1.19-1.92,1.79C214.45,269.38,214.29,269.52,214.17,269.63z"/>
</g>
<g>
	<path class="st0" d="M166.03,269.73c0.34-1.04,0.86-1.93,1.32-2.89c4.42,2.31,8.8,4.59,13.22,6.9c-0.3,0.62-0.59,1.22-0.87,1.81
		c-0.03,0.02-0.04,0.03-0.05,0.03c-0.01,0-0.03,0.01-0.04,0.01c-0.05-0.01-0.11-0.02-0.15-0.04
		C175,273.62,170.53,271.69,166.03,269.73z"/>
</g>
<g>
	<path class="st0" d="M220.89,311.44c-3.15-3.9-6.26-7.74-9.39-11.61c0.5-0.43,0.98-0.85,1.44-1.26c0.63,0.27,0.99,0.81,1.43,1.25
		c0.48,0.49,0.93,1,1.4,1.51c0.92,0.98,1.83,1.97,2.75,2.95c0.66,0.71,1.33,1.41,1.99,2.11c0.84,0.89,1.68,1.78,2.51,2.68
		c0.08,0.09,0.14,0.19,0.24,0.32C222.48,310.06,221.71,310.73,220.89,311.44z"/>
</g>
<g>
	<path class="st0" d="M188.33,265.73c-0.59,0.39-1.16,0.76-1.76,1.15c-2.86-4.03-5.71-8.05-8.58-12.1c0.79-0.72,1.67-1.26,2.63-1.76
		C183.19,257.26,185.75,261.48,188.33,265.73z"/>
</g>
<g>
	<path class="st0" d="M212.56,316.39c-1.98-4.59-3.94-9.13-5.91-13.71c0.62-0.3,1.22-0.58,1.87-0.89c0.18,0.32,0.36,0.63,0.53,0.94
		c0.88,1.7,1.75,3.4,2.63,5.09c1.1,2.12,2.22,4.24,3.32,6.37c0.14,0.27,0.26,0.56,0.4,0.86
		C214.44,315.49,213.52,315.93,212.56,316.39z"/>
</g>
<g>
	<path class="st0" d="M187.18,317.13c-1.06-0.25-1.99-0.66-2.96-1.12c1.99-4.54,3.97-9.07,5.98-13.63c0.65,0.26,1.28,0.51,1.94,0.78
		C190.48,307.82,188.84,312.45,187.18,317.13z"/>
</g>
<g>
	<path class="st0" d="M189.53,249.23c1.33,4.79,2.65,9.54,3.98,14.34c-0.66,0.21-1.31,0.42-1.99,0.64
		c-1.66-4.66-3.32-9.29-4.99-13.97C187.47,249.75,188.47,249.51,189.53,249.23z"/>
</g>
<g>
	<path class="st0" d="M165.08,295.12c4.7-1.66,9.37-3.3,14.08-4.96c0.25,0.64,0.51,1.27,0.77,1.94c-4.57,1.99-9.11,3.97-13.69,5.97
		C165.85,297.07,165.47,296.12,165.08,295.12z"/>
</g>
<g>
	<path class="st0" d="M204.67,263.75c-0.68-0.16-1.33-0.31-2.03-0.48c0.99-4.84,1.98-9.66,2.97-14.52c1.08,0.03,2.05,0.43,3.09,0.66
		C207.35,254.19,206.02,258.95,204.67,263.75z"/>
</g>
<g>
	<path class="st0" d="M178.6,279.02c-0.13,0.71-0.24,1.35-0.36,2.05c-4.92-0.66-9.83-1.33-14.78-1.99c0.18-1.05,0.35-2.04,0.52-3.08
		c1.25,0.2,2.45,0.48,3.65,0.73c1.23,0.25,2.45,0.5,3.68,0.76c1.21,0.25,2.42,0.52,3.63,0.77
		C176.14,278.51,177.35,278.76,178.6,279.02z"/>
</g>
<g>
	<path class="st0" d="M193.52,318.77c0.69-4.94,1.37-9.84,2.05-14.77c0.69,0.07,1.34,0.14,1.98,0.21c0.1,0.43-0.79,14.19-0.97,14.86
		C195.59,319.01,194.59,318.88,193.52,318.77z"/>
</g>
<g>
	<path class="st0" d="M206.3,318.33c-0.45,0.09-0.84,0.16-1.24,0.23c-0.45,0.08-0.9,0.16-1.35,0.22c-0.4,0.05-0.54-0.06-0.59-0.47
		c-0.22-1.66-0.44-3.32-0.67-4.99c-0.29-2.15-0.58-4.31-0.86-6.46c-0.11-0.81-0.22-1.62-0.32-2.43c-0.01-0.1,0-0.21,0-0.35
		c0.65-0.11,1.29-0.22,1.99-0.35c0.3,1.21,0.52,2.43,0.78,3.64c0.26,1.21,0.51,2.42,0.76,3.63c0.25,1.22,0.5,2.45,0.75,3.67
		C205.79,315.89,206.04,317.09,206.3,318.33z"/>
</g>
<g>
	<path class="st0" d="M178.12,284.72c0.06,0.65,0.13,1.29,0.2,1.98c-4.92,0.69-9.81,1.35-14.72,2.03c-0.22-1.03-0.26-2.03-0.34-3.03
		c0.44-0.19,0.88-0.15,1.32-0.18c0.99-0.08,1.98-0.14,2.97-0.21c1.14-0.07,2.28-0.13,3.42-0.2c0.92-0.06,1.85-0.14,2.77-0.2
		c0.71-0.05,1.42-0.08,2.13-0.12c0.6-0.03,1.21-0.06,1.81-0.08C177.82,284.7,177.95,284.72,178.12,284.72z"/>
</g>
<g>
	<path class="st0" d="M228.97,264.74c0.52,0.92,1.03,1.82,1.56,2.76c-4.14,2.14-8.26,4.27-12.44,6.43c0.01-0.8-0.09-1.54-0.52-2.21
		C221.38,269.39,225.16,267.08,228.97,264.74z"/>
</g>
<g>
	<path class="st0" d="M217.78,297.47c0.38-0.81,0.28-1.62,0.31-2.43c0.32,0.08,10.38,6.16,11.19,6.76c-0.5,0.91-1.08,1.76-1.73,2.63
		C224.29,302.1,221.05,299.79,217.78,297.47z"/>
</g>
<g>
	<path class="st0" d="M218.11,290.84c0.22-0.68,0.42-1.32,0.64-1.99c3.54,0.99,7.05,1.97,10.56,2.95c0,1.01,0,2.01,0,3.06
		C225.57,293.52,221.86,292.19,218.11,290.84z"/>
</g>
<g>
	<path class="st0" d="M219.06,279.68c-0.17-0.7-0.33-1.34-0.5-2.02c3.57-1.01,7.15-2.02,10.74-3.03c0,1,0,1.95,0,2.95
		C225.91,278.27,222.51,278.97,219.06,279.68z"/>
</g>
</svg>
